<svg width="264" height="403" viewBox="0 0 264 403" fill="none" xmlns="http://www.w3.org/2000/svg">
<rect x="72.1277" y="353.425" width="187.173" height="56.4392" rx="28.2196" transform="rotate(-29.1651 72.1277 353.425)" fill="#454343"/>
<path d="M99.7654 290.71L92.4357 295.475V332.49L99.7654 328.825V290.71Z" fill="#F7FA5D"/>
<path d="M105.629 284.48L98.666 288.878L97.5665 329.925L105.629 325.16V284.48Z" fill="#C44048"/>
<path d="M92.4357 332.49L86.5719 336.521V304.27L92.4357 300.605V332.49Z" fill="#56DA7B"/>
<path d="M170.131 249.664L162.801 254.428V291.443L170.131 287.778V249.664Z" fill="#F7FA5D"/>
<path d="M175.995 243.433L169.032 247.831L167.932 288.878L175.995 284.114V243.433Z" fill="#C44048"/>
<path d="M162.801 291.443L156.938 295.475V263.224L162.801 259.559V291.443Z" fill="#56DA7B"/>
<path d="M118.823 279.716L111.493 284.48V321.495L118.823 317.83V279.716Z" fill="#F7FA5D"/>
<path d="M124.687 273.485L117.723 277.883L116.624 318.93L124.687 314.166V273.485Z" fill="#C44048"/>
<path d="M111.493 321.495L105.629 325.527V293.276L111.493 289.611V321.495Z" fill="#56DA7B"/>
<path d="M189.189 238.669L181.859 243.433V280.449L189.189 276.784V238.669Z" fill="#F7FA5D"/>
<path d="M195.052 232.439L188.089 236.837L186.99 277.883L195.052 273.119V232.439Z" fill="#C44048"/>
<path d="M181.859 280.449L175.995 284.48V252.229L181.859 248.564V280.449Z" fill="#56DA7B"/>
<path d="M137.88 267.255L130.55 272.019V309.035L137.88 305.37V267.255Z" fill="#F7FA5D"/>
<path d="M143.744 261.025L136.781 265.423L135.681 306.469L143.744 301.705V261.025Z" fill="#C44048"/>
<path d="M130.55 309.035L124.687 313.066V280.815L130.55 277.15V309.035Z" fill="#56DA7B"/>
<path d="M208.246 227.674L200.916 232.438V269.454L208.246 265.789V227.674Z" fill="#F7FA5D"/>
<path d="M214.11 221.444L207.147 225.842L206.047 266.888L214.11 262.124V221.444Z" fill="#C44048"/>
<path d="M200.916 269.454L195.052 273.485V241.234L200.916 237.569V269.454Z" fill="#56DA7B"/>
<path d="M52.1219 262.491V252.229L66.6899 243.983M52.1219 262.491L226.937 162.806M52.1219 262.491V271.653M226.937 162.806V153.277L212.316 161.553M226.937 162.806V172.334M52.1219 271.653L226.937 172.334M52.1219 271.653V283.014M226.937 172.334V184.062M52.1219 283.014L226.937 184.062M52.1219 283.014V293.276M226.937 184.062V194.69M226.937 194.69L52.1219 293.276M226.937 194.69V204.585M52.1219 293.276V303.904M52.1219 303.904L226.937 204.585M52.1219 303.904V313.799M226.937 204.585V214.847M226.937 214.847L52.1219 313.799M226.937 214.847V222.543M52.1219 313.799V323.328M52.1219 323.328L226.937 222.543M52.1219 323.328V333.956M226.937 222.543V233.172M226.937 233.172L52.1219 333.956M226.937 233.172V243.983M52.1219 333.956V344.767M52.1219 344.767V355.579L66.6899 347.18M52.1219 344.767L226.937 243.983M226.937 243.983V254.794L197.695 271.653M66.6899 243.983V347.18M66.6899 243.983L81.0745 235.841M66.6899 347.18L81.0745 338.887M81.0745 235.841V338.887M81.0745 235.841L96.1006 227.335M81.0745 338.887L96.1006 330.224M96.1006 227.335V330.224M96.1006 227.335L110.027 219.452M96.1006 330.224L110.027 322.195M110.027 322.195V219.452M110.027 322.195L124.591 313.799M110.027 219.452L122.854 212.192M122.854 212.192L124.591 313.799M122.854 212.192L141.754 201.494M124.591 313.799L141.754 303.904M141.754 303.904V201.494M141.754 303.904L153.774 296.975M141.754 201.494L153.774 194.69M153.774 194.69V296.975M153.774 194.69L168.665 186.261M153.774 296.975L168.665 288.389M168.665 288.389V186.261M168.665 288.389L182.592 280.36M168.665 186.261L182.592 178.378M182.592 178.378V280.36M182.592 178.378L197.695 169.829M182.592 280.36L197.695 271.653M197.695 271.653V169.829M197.695 169.829L212.316 161.553M212.316 161.553V265.789" stroke="#E1DDDD"/>
<path d="M52.8549 313.799L86.7209 298.155L100.051 272.557L112.661 275.757L127.072 246.958L142.564 259.402L163.1 255.491L173.908 222.426L199.127 216.738L212.097 180.473L219.663 216.738L222.906 159.141" stroke="#E73642" stroke-width="3" stroke-linecap="round"/>
<path d="M75.6153 207.631C74.3284 209.422 73.4565 209.965 71.577 209.938L69.8464 211.669C64.7508 217.229 62.4174 220.682 58.8854 227.245C58.2588 233.832 59.3557 235.269 62.9236 235.322C63.8042 230.082 64.9986 228.01 68.1157 225.514C70.6416 224.199 71.5619 224.515 72.7308 226.091L71.0002 231.86C71.7231 233.587 72.4226 233.462 73.8846 232.437C74.3608 230.979 74.7021 229.691 75.6153 225.514C76.4733 225.594 76.822 225.253 77.346 224.361C78.2793 219.344 78.2377 217.246 77.346 214.553L79.6536 209.938L75.6153 207.631Z" fill="#FFB296"/>
<path d="M177.161 24.867C175.302 24.267 174.604 24.529 174.103 26.2702C176.138 29.9836 177.305 32.1868 180.163 39.7093C179.737 41.9125 179.676 42.8251 179.655 44.2965C181.436 46.6869 182.909 47.973 185.965 50.218C190.101 53.4642 191.99 53.074 195.14 51.2326L195.52 47.7922C196.791 43.5793 196.388 41.8173 194.114 39.511C194.734 33.7055 192.339 32.8655 182.9 35.9491L177.161 24.867Z" fill="#FFB296"/>
<path opacity="0.3" d="M193.241 40.673C189.992 42.8714 188.002 42.6399 184.286 40.7827C186.054 44.6378 188.015 45.9807 193.685 46.5395C194.351 43.9548 194.363 42.6332 193.241 40.673Z" fill="#E59575"/>
<path d="M78.3331 214.553C76.7003 211.445 75.4737 210.015 71.4104 209.361C84.9935 187.697 92.2053 175.645 100.832 155.133C106.142 143.525 109.671 137.477 121.023 130.904L129.1 123.981L146.407 125.712L154.483 113.02C165.428 102.045 171.781 96.1282 184.482 87.0599C185.915 72.7945 185.96 64.5915 184.482 49.5617C189.384 50.5611 192.022 50.0837 196.596 47.2542C200.326 60.4296 201.849 67.7664 202.942 80.714C205.068 94.4914 201.175 101.455 188.52 113.02C182.776 119.858 180 124.057 179.867 135.519L182.174 192.632C167.732 214.524 156.959 217.275 133.138 205.323L123.331 163.787L78.3331 214.553Z" fill="#D5EDFF"/>
<path d="M112.947 329.932L100.832 325.317L97.9476 328.202C98.6467 331.581 98.413 333.476 97.9476 336.855C100.304 340.515 100.858 342.518 100.832 347.816C108.948 356.753 114.411 357.038 121.6 351.854C120.124 344.172 117.356 339.472 111.793 333.394L112.947 329.932Z" fill="black"/>
<path d="M196.02 302.241L197.75 294.165L211.019 288.396L212.173 295.896C210.699 297.735 218.12 303.659 228.326 312.626C229.851 319.066 227.91 321.13 215.057 321.856C211.217 319.003 208.207 316.92 205.25 312.626C203.218 308.625 201.405 306.358 196.02 302.241Z" fill="black"/>
<path d="M181.02 190.324C163.852 211.078 153.284 210.822 133.715 201.285C129.313 200.841 124.715 240.264 118.139 280.319C112.725 284.367 109.695 290.069 104.293 302.241L101.697 315.798L97.9475 323.01L99.1013 329.355C101.279 333.373 104.669 333.987 112.947 333.394L130.831 295.896L141.792 277.435L164.867 227.822C173.805 242.933 179.578 251.215 192.558 265.32C193.778 274.12 194.203 282.344 194.866 298.203C199.469 300.423 204.051 298.738 214.48 292.434C213.448 284.562 213.627 279.643 214.48 270.512C215.271 259.132 213.359 252.396 206.981 239.937C197.953 217.719 192.295 206.785 181.02 190.324Z" fill="#312942"/>
<path d="M146.984 207.054L133.138 201.285C126.982 208.88 123.789 232.772 116.985 279.166C108.693 290.891 107.207 295.897 103.717 308.01L116.985 290.127C123.542 283.462 126.351 279.123 126.792 268.205C132.182 233.761 136.515 220.024 146.984 207.054Z" fill="#251F32"/>
<path d="M133.081 115.895C136.787 122.13 139.365 123.991 143.689 126.572C148.462 127.469 151.463 127.622 153.238 126.876L154.172 126.309C155.255 125.378 155.563 123.801 155.413 121.488C154.333 113.661 152.901 110.901 148.155 110.302L154.297 107.251C158.461 115.636 160.876 120.099 166.021 125.555H155.413L154.172 126.309C153.908 126.536 153.599 126.724 153.238 126.876L152.064 127.589V137.25C142.002 132.614 137.398 129.768 131.965 124.03C131.116 119.804 131.056 117.775 133.081 115.895Z" fill="white"/>
<path d="M131.407 200.708C129.678 177.257 127.162 158.917 118.716 145.326C118.716 145.326 122.936 145.493 124.485 147.634C132.342 162.908 140.17 177.416 140.061 203.592C140.061 204.169 133.64 202.434 131.407 200.708Z" fill="#CBE1F1"/>
<path d="M131.407 117.982C132.493 112.852 132.37 110.236 131.407 105.833L152.517 102.636C153.486 109.514 154.33 113.335 157.945 119.9C156.072 127.02 153.132 129.033 142.867 127.573C136.987 125.885 134.69 123.474 131.407 117.982Z" fill="#D9D9D9"/>
<path d="M131.407 117.982C132.493 112.852 132.37 110.236 131.407 105.833L152.517 102.636C153.486 109.514 154.33 113.335 157.945 119.9C156.072 127.02 153.132 129.033 142.867 127.573C136.987 125.885 134.69 123.474 131.407 117.982Z" fill="#FFB294"/>
<g opacity="0.5">
<path d="M148.767 119.943C140.527 117.475 138.248 114.952 136.023 109.559L153.015 112.443C155.46 117.704 155.358 119.817 148.767 119.943Z" fill="#FD976C"/>
<path d="M148.767 119.943C140.527 117.475 138.248 114.952 136.023 109.559L153.015 112.443C155.46 117.704 155.358 119.817 148.767 119.943Z" fill="black" fill-opacity="0.2"/>
</g>
<path d="M146.984 85.3293C139.976 85.8241 136.475 87.1779 130.831 91.0983C130.088 95.0735 129.973 97.4258 130.831 102.059L128.523 99.7517C125.321 99.6881 124.48 100.562 126.215 104.367C127.965 106.964 129.339 107.38 132.561 106.098C133.263 107.999 133.775 109.007 134.869 110.713C149.923 116.585 153.898 115.377 155.637 107.828C153.76 95.8852 151.598 91.5208 146.984 85.3293Z" fill="#FFB296"/>
<path d="M130.409 92.252C135.157 88.126 138.768 86.512 148.292 85.9061C146.367 80.8662 144.81 79.3371 141.37 78.4065C124.015 78.7153 117.604 85.1069 118.871 97.444C123.8 107.013 126.977 108.971 132.716 111.866L132.139 106.097C129.125 106.828 128.795 106.048 127.524 105.521C125.007 101.994 124.767 100.714 127.524 100.328L130.985 102.636L130.409 92.252Z" fill="black"/>
<path d="M151.022 129.173L151.599 124.558L156.214 125.135V127.443L159.098 133.212C164.004 143.146 166.501 149.436 170.059 163.21C169.966 169.848 169.452 172.611 167.752 175.902C165.142 173.466 163.872 171.713 161.983 167.825C161.023 153.991 159.687 146.847 156.214 134.942C155.013 132.563 154.256 131.423 152.753 129.75L151.022 129.173Z" fill="#E73642"/>
<path d="M71.8136 108.196C71.8136 112.596 70.6536 116.676 68.3336 120.436C66.0936 124.116 62.7336 127.156 58.2536 129.556C53.8536 131.876 48.6136 133.156 42.5336 133.396V143.116H34.8536V133.276C26.3736 132.556 19.5336 130.036 14.3336 125.716C9.1336 121.316 6.3736 115.356 6.0536 107.836H27.8936C28.3736 112.636 30.6936 115.716 34.8536 117.076V98.116C28.6136 96.516 23.6136 94.956 19.8536 93.436C16.1736 91.916 12.9336 89.476 10.1336 86.116C7.3336 82.756 5.9336 78.156 5.9336 72.316C5.9336 65.036 8.6136 59.196 13.9736 54.796C19.4136 50.396 26.3736 47.916 34.8536 47.356V37.636H42.5336V47.356C50.9336 47.996 57.5736 50.436 62.4536 54.676C67.3336 58.916 70.0536 64.796 70.6136 72.316H48.6536C48.1736 67.996 46.1336 65.196 42.5336 63.916V82.516C49.1736 84.356 54.2936 85.996 57.8936 87.436C61.4936 88.876 64.6936 91.276 67.4936 94.636C70.3736 97.916 71.8136 102.436 71.8136 108.196ZM27.6536 71.356C27.6536 73.356 28.2536 75.036 29.4536 76.396C30.7336 77.756 32.5336 78.956 34.8536 79.996V63.316C32.6136 63.716 30.8536 64.596 29.5736 65.956C28.2936 67.236 27.6536 69.036 27.6536 71.356ZM42.5336 117.436C44.9336 117.036 46.8136 116.076 48.1736 114.556C49.6136 113.036 50.3336 111.156 50.3336 108.916C50.3336 106.836 49.6536 105.156 48.2936 103.876C47.0136 102.516 45.0936 101.356 42.5336 100.396V117.436Z" fill="#5ED5A8"/>
</svg>
