<svg width="293" height="360" viewBox="0 0 293 360" fill="none" xmlns="http://www.w3.org/2000/svg">
<path d="M140.902 285.021C138.941 291.448 141.612 316.509 140.902 324.241C140.812 325.204 140.746 326.331 140.693 327.568C140.693 327.735 140.693 327.905 140.672 328.076C140.332 336.802 140.599 350.395 138.76 352.091C137.369 353.377 131.452 353.987 126.995 354.086C126.367 354.086 125.764 354.109 125.214 354.109C124.14 354.144 123.064 354.076 122.005 353.904C120.224 353.411 127.533 347.971 128.066 346.161C128.284 345.402 127.151 339.48 125.645 331.768L125.473 330.887C123.323 319.927 120.508 305.754 119.687 297.715C118.792 288.921 114.763 273.579 112.071 262.634C111.636 260.874 111.25 259.22 110.901 257.736C109.986 253.738 109.465 250.908 109.707 250.088C110.261 248.237 113.597 242.121 117.914 237.254C120.528 234.333 123.503 231.875 126.445 231.089C128.723 230.482 131.608 229.693 134.562 228.885L134.759 228.832C141.92 226.863 149.388 224.773 149.388 224.773C149.323 225.531 142.847 278.64 140.902 285.021Z" fill="#6FC29F"/>
<path d="M112.916 239.208C112.916 239.208 122.765 303.808 124.443 312.871C126.122 321.934 127.353 333.801 127.353 333.801" stroke="#1B232A" stroke-miterlimit="10"/>
<path d="M93.3055 291.785C92.7721 296.565 95.0906 316.505 97.0521 330.349C97.0808 330.55 97.1095 330.751 97.1342 330.948C97.1875 331.327 97.2326 331.684 97.2819 332.052C98.9233 345.121 98.1026 355.759 97.5855 356.548C97.1752 357.201 89.7108 358.472 84.5896 358.969H84.4952L84.1382 359.003H84.0766C82.944 359.105 81.951 359.166 81.2041 359.166C77.1005 359.166 75.1431 358.343 76.5671 356.696C77.991 355.05 82.4352 353.069 82.0864 350.926C81.9592 350.167 80.3383 343.718 78.2372 335.303C78.1469 334.95 78.0608 334.59 77.9664 334.23C74.1788 319.055 69.0206 298.216 68.0809 292.096C66.5872 282.373 65.8732 244.963 76.3906 229.636L112.092 235.012L122.859 236.632V236.666C121.994 238.153 93.8349 287.07 93.3055 291.785Z" fill="#6FC29F"/>
<path d="M87.1296 133.518C87.1409 140.428 85.0706 147.203 81.1507 153.086H81.1138C79.9443 153.086 78.783 153.041 77.6381 152.942C71.835 152.464 66.2195 150.799 61.1978 148.068C56.1761 145.337 51.8737 141.608 48.6019 137.152C45.3302 132.695 43.1708 127.622 42.28 122.299C41.3892 116.976 41.7893 111.536 43.4513 106.374C43.6359 105.79 43.8616 105.213 44.0586 104.644C45.1671 101.746 46.6716 98.9911 48.5356 96.4458L48.7449 96.165C59.1023 96.6562 68.8603 100.806 76.0035 107.757C83.1467 114.708 87.1296 123.93 87.1296 133.518Z" fill="#6FC29F"/>
<path d="M86.1773 233.604C86.1773 233.604 58.7695 268.886 83.3458 341.051" stroke="#1B232A" stroke-miterlimit="10"/>
<path d="M120.405 116.765C120.405 118.024 120.336 119.265 120.204 120.49C120.106 121.371 119.969 122.241 119.794 123.1C118.177 131.495 113.419 139.098 106.352 144.577C99.2841 150.056 90.3577 153.062 81.1343 153.071C84.8019 147.542 86.8513 141.227 87.0815 134.745C87.3117 128.262 85.7146 121.836 82.4472 116.097C79.1797 110.358 74.3541 105.503 68.4441 102.008C62.534 98.5137 55.7427 96.5001 48.7367 96.1649C49.4097 95.2582 50.1319 94.3819 50.8911 93.5397C55.1066 88.854 60.5296 85.224 66.6606 82.9841C72.7916 80.7442 79.4336 79.9663 85.9752 80.722C92.5167 81.4777 98.7474 83.7428 104.094 87.3086C109.44 90.8745 113.73 95.6265 116.569 101.127C116.852 101.673 117.119 102.231 117.369 102.793C119.373 107.218 120.406 111.967 120.405 116.765Z" fill="url(#paint0_linear_154_4375)"/>
<path d="M60.2434 124.512C60.2434 124.512 59.0123 137.365 60.5306 138.476C62.0489 139.588 63.0133 137.604 62.7753 134.394L60.2434 124.512Z" fill="#D27358"/>
<path d="M149.939 223.498C149.804 223.935 149.628 224.36 149.413 224.769C148.244 226.996 144.768 231.218 133.951 234.333C129.163 235.657 124.256 236.584 119.289 237.102C118.834 237.155 118.382 237.205 117.931 237.247C101.106 238.976 87.9748 236.632 80.4899 234.291C76.3125 232.986 73.8955 231.677 73.5672 231.082C72.6521 229.424 74.3551 223.748 74.4289 223.494C74.4289 223.589 74.7531 224.86 91.0279 227.189H91.073C92.1522 227.345 93.2971 227.5 94.5159 227.667L94.8319 227.705C95.2915 227.766 95.7593 227.815 96.2353 227.853H96.2845C108 228.859 123.639 224.906 135.002 221.286C138.35 220.22 141.325 219.185 143.718 218.312C145.396 217.705 146.787 217.174 147.821 216.772C149.085 216.279 149.82 215.975 149.873 215.948C149.873 215.948 150.415 218.172 149.914 220.027C149.413 221.882 150.439 221.905 149.939 223.498Z" fill="url(#paint1_linear_154_4375)"/>
<path d="M149.635 217.891C148.893 219.571 144.711 222.443 134.825 225.478C129.449 227.093 123.979 228.425 118.44 229.469C110.334 231.071 102.003 231.471 93.7611 230.653C84.5527 229.708 78.2127 227.402 76.3743 226.173C74.6344 225.008 74.3225 224.09 74.4292 223.494C74.4735 223.196 74.6254 222.921 74.8601 222.713H74.897C75.2745 222.83 78.8405 223.798 99.9041 225.334C112.133 226.226 125.432 222.679 135.039 219.234C139.686 217.599 144.218 215.699 148.609 213.543C148.969 213.899 149.265 214.305 149.488 214.746C149.691 215.126 149.83 215.533 149.898 215.952C150.008 216.608 149.917 217.28 149.635 217.891Z" fill="#354E4C"/>
<path d="M81.0069 135.635C78.7745 136.496 66.5705 142.885 66.5705 142.885C60.4152 131.348 59.8325 122.474 59.8448 119.451C59.8448 118.719 59.8858 118.313 59.8858 118.313L61.757 117.175L67.3707 113.76C67.3707 113.76 80.7401 121.067 83.5921 125.582C86.4441 130.096 83.2556 134.77 81.0069 135.635Z" fill="#F8AD88"/>
<path d="M74.3346 129.007C74.3346 129.007 76.727 125.771 79.3451 126.177C81.9632 126.583 82.2709 129.531 81.7867 132.429C81.3025 135.328 76.5752 136.197 71.9628 138.541C67.3504 140.886 65.7787 143.727 65.7787 143.727C65.7787 143.727 83.0137 137.919 83.3461 135.381C83.6784 132.843 85.4266 126.033 82.6074 124.869C79.7883 123.704 76.3905 123.211 75.0774 124.906C73.7642 126.602 74.3346 129.007 74.3346 129.007Z" fill="#D27358"/>
<path d="M74.86 127.516C73.4977 128.518 73.432 133.089 73.432 133.089C72.8868 131.751 72.5015 130.362 72.283 128.947C71.9342 126.64 69.9563 122.118 67.092 121.526C65.0156 121.101 61.5809 120.009 59.8451 119.44C59.8451 118.707 59.8861 118.301 59.8861 118.301L61.7573 117.163C65.311 116.503 70.7565 116.731 70.7565 116.731C70.7565 116.731 76.2224 126.53 74.86 127.516Z" fill="#D27358"/>
<path d="M143.722 218.338C140.911 219.761 137.991 220.991 134.985 222.018C132.113 223.043 128.633 224.158 124.435 225.364C119.471 226.79 114.349 227.691 109.165 228.05C104.876 228.346 100.567 228.289 96.2885 227.88H96.2392C95.766 227.834 95.2981 227.785 94.8358 227.732L94.5609 227.698H94.5198C93.3298 227.556 92.1822 227.397 91.077 227.22H91.0318C81.569 225.702 75.4136 222.99 74.9007 222.758H74.8638L73.0336 190.621C73.0336 190.621 73.2921 156.922 77.0099 144.399C77.6747 142.164 78.4462 140.605 79.349 140.032C85.3073 136.238 135.568 140.032 140.902 149.095C144.637 155.423 146.914 184.35 147.948 201.236C148.108 203.843 148.236 206.168 148.359 208.065C148.482 210.406 148.564 212.124 148.601 212.997C148.601 213.376 148.629 213.604 148.629 213.604C148.679 213.672 149.528 215.292 143.722 218.338Z" fill="#6FC29F"/>
<path d="M84.3553 132.627C84.3553 133.006 84.3553 133.385 84.3348 133.746L84.3101 134.36L81.0068 135.635C82.878 134.068 84.2896 125.828 79.8496 125.335C79.5278 125.301 79.2029 125.301 78.8811 125.335C75.1305 125.714 73.6121 130.696 73.6121 130.696L70.8463 119.986C70.8463 119.986 67.5635 120.726 59.8857 118.336C52.2079 115.946 48.921 108.608 49.1959 103.661C49.4709 98.7144 54.19 98.3085 55.3513 99.6249C56.5126 100.941 58.9173 103.661 58.9173 103.661C58.6816 102.626 58.6413 101.561 58.7983 100.513C58.8762 99.8108 58.9911 99.1621 59.0896 98.6841C67.6818 101.724 74.8522 107.448 79.3571 114.864C79.7976 115.583 80.2079 116.317 80.5882 117.069C82.9085 121.59 84.1871 126.509 84.343 131.511C84.3512 131.883 84.3553 132.255 84.3553 132.627Z" fill="url(#paint2_linear_154_4375)"/>
<path d="M85.9476 121.538C86.9578 124.769 87.5095 128.107 87.5891 131.47C87.5891 131.758 87.5891 132.046 87.5891 132.338C87.5891 132.63 87.5891 132.847 87.5891 133.097" stroke="#231F20" stroke-miterlimit="10"/>
<path d="M87.5851 132.338C87.5851 133.207 84.3351 133.746 84.3351 133.746C84.9876 128.564 81.7417 119.576 81.7417 119.576C74.4578 103.354 59.0777 98.6841 59.0777 98.6841C55.696 97.489 52.1506 96.7356 48.5438 96.4458C49.2787 95.4413 50.0676 94.4714 50.9075 93.5398C57.7156 94.3896 64.1979 96.7576 69.7956 100.44C75.3932 104.122 79.9381 109.007 83.0384 114.675C83.4269 115.38 83.7907 116.099 84.13 116.83C84.8479 118.36 85.4552 119.933 85.9478 121.538C87.0517 124.724 87.5728 131.47 87.5851 132.338Z" fill="#354E4C"/>
<path d="M87.5725 133.101C87.5725 133.306 87.5725 133.511 87.5725 133.712C87.3263 140.58 85.1161 147.265 81.1668 153.086H81.1299C79.9604 153.086 78.7991 153.041 77.6542 152.942C81.6879 147.432 83.997 140.999 84.3266 134.353L87.5725 133.101Z" stroke="#231F20" stroke-miterlimit="10"/>
<path opacity="0.4" d="M79.3453 114.864C77.4741 112.668 73.9614 107.8 71.6101 106.044C70.5103 103.817 69.6239 99.9928 68.0646 98.684C63.9405 95.2279 63.5507 91.6997 63.5507 91.6997L74.0435 95.1141L79.3453 114.864Z" fill="#354E4C"/>
<path d="M117.385 102.785C108.262 110.696 96.5868 115.626 84.146 116.822C82.9723 116.936 81.7891 117.015 80.5964 117.061C80.3461 116.575 80.0875 116.094 79.8126 115.623C79.669 115.365 79.5171 115.111 79.3612 114.864C80.5923 114.838 81.8233 114.777 83.0544 114.675C95.5404 113.674 107.326 108.912 116.601 101.12C116.691 101.29 116.778 101.465 116.86 101.639C117.032 102.015 117.212 102.402 117.385 102.785Z" fill="#CEEBE9"/>
<path d="M120.188 120.49C120.089 121.371 119.953 122.241 119.777 123.101C110.452 129.605 99.1961 133.312 87.5234 133.723C86.7684 133.75 86.0092 133.765 85.2459 133.765H84.3021C84.3021 133.385 84.3226 133.006 84.3226 132.646C84.3226 132.285 84.3226 131.887 84.3021 131.53C84.573 131.53 84.8438 131.53 85.1228 131.53C85.9436 131.53 86.752 131.514 87.5481 131.481C99.3982 131.038 110.806 127.197 120.188 120.49Z" fill="#CEEBE9"/>
<path d="M74.8597 132.338C74.8597 132.338 76.0169 128.958 78.0646 127.888C80.1123 126.818 81.2736 128.302 81.0972 130.32C81.0972 130.32 80.5637 128.465 79.0043 129.042C77.445 129.618 74.8597 132.338 74.8597 132.338Z" fill="#D27358"/>
<path d="M62.6767 120.57C62.5953 120.705 62.5492 120.855 62.5423 121.009C62.5354 121.163 62.5678 121.317 62.6369 121.457C62.706 121.597 62.8099 121.721 62.9402 121.817C63.0704 121.914 63.2234 121.98 63.3867 122.012C64.6381 122.254 65.8259 122.72 66.8829 123.385C68.8034 124.671 69.0619 124.747 68.8075 123.465C68.5531 122.183 66.9157 120.767 65.3235 120.274C64.1827 119.929 63.1487 119.834 62.6767 120.57Z" fill="url(#paint3_linear_154_4375)"/>
<path d="M63.979 124.676C64.242 123.83 64.1109 123.053 63.6862 122.94C63.2615 122.827 62.7039 123.422 62.4409 124.267C62.1779 125.113 62.309 125.89 62.7338 126.003C63.1585 126.116 63.716 125.522 63.979 124.676Z" fill="#01010B"/>
<path d="M71.1381 137.87C70.8783 138.238 70.5039 138.524 70.0644 138.691C69.6248 138.859 69.1407 138.899 68.676 138.807C67.5188 138.644 66.1359 137.885 64.7899 136.322C64.7899 136.322 68.2492 134.159 69.0617 132.429C69.4547 132.947 69.819 133.483 70.1533 134.034C70.9453 135.305 71.7249 137.001 71.1381 137.87Z" fill="#7A2B18"/>
<path d="M71.1377 137.87C70.8779 138.238 70.5035 138.524 70.0639 138.691C69.6244 138.859 69.1403 138.899 68.6756 138.807C68.4486 137.961 68.4655 137.076 68.7247 136.238C68.984 135.401 69.4764 134.641 70.1529 134.034C70.9449 135.305 71.7245 137.001 71.1377 137.87Z" fill="#EE7671"/>
<path opacity="0.65" d="M109.166 228.051C89.4398 229.428 74.8599 222.739 74.8599 222.739L73.0297 190.603C73.0297 190.603 73.2882 156.903 77.006 144.38C80.5187 149.004 90.6422 163.591 88.6725 175.796C86.317 190.382 89.9405 220.463 109.166 228.051Z" fill="#354E4C"/>
<path d="M73.8176 204.302C73.8176 204.302 82.5992 192.116 85.1722 174.506L83.1204 163.929L73.5262 199.063L73.8176 204.302Z" fill="#354E4C"/>
<path d="M93.3058 135.635C66.329 147.908 50.0953 168.599 43.5254 178.258C41.8512 180.72 40.8089 182.465 40.3739 183.167C38.2359 186.627 35.741 185.804 35.2034 183.167C34.6658 180.53 36.6315 177.397 49.1843 158.94C56.5337 148.132 68.0607 141.257 76.3827 137.418C79.6463 135.878 83.0319 134.569 86.5103 133.503C91.1145 130.65 93.3058 135.635 93.3058 135.635Z" fill="url(#paint4_linear_154_4375)"/>
<path opacity="0.65" d="M148.58 212.951C142.942 216.445 122.478 223.574 111.722 223.718C99.6699 223.877 88.1389 217.618 88.0322 214.014C87.9255 210.41 81.4091 173.083 81.4091 173.083C84.0271 134.542 137.817 190.329 147.948 201.206C148.301 207.018 148.502 211.403 148.58 212.951Z" fill="#354E4C"/>
<path opacity="0.29" d="M93.3051 135.635C66.3283 147.908 50.0946 168.599 43.5248 178.258C47.7309 171.251 60.3494 150.787 67.2106 145.704C75.5162 139.539 76.3738 137.43 76.3738 137.43C79.6374 135.889 83.0231 134.58 86.5014 133.514C91.1138 130.65 93.3051 135.635 93.3051 135.635Z" fill="#354E4C"/>
<path d="M42.0147 188.41L40.8985 188.975L33.7255 192.503C30.7832 188.053 31.9897 187.435 32.2564 183.235C32.4206 180.629 33.984 179.441 35.1289 178.933C35.53 178.748 35.9588 178.62 36.401 178.554C36.3723 178.614 35.9907 179.468 36.5159 181.259C37.0535 183.121 37.9891 182.867 40.3487 183.197C42.7082 183.527 42.0147 188.41 42.0147 188.41Z" fill="#CEEBE9"/>
<path opacity="0.65" d="M40.8985 188.975L33.7255 192.503C30.7832 188.053 31.9897 187.435 32.2564 183.235C32.4206 180.629 33.984 179.441 35.1289 178.933C35.2151 180.265 35.5598 183.201 36.9345 183.698C38.7236 184.347 41.194 183.11 41.4484 185.891C41.5751 186.946 41.3849 188.013 40.8985 188.975Z" fill="#354E4C"/>
<path d="M51.3752 210.41C51.3752 210.41 50.8704 215.277 46.4509 213.672C46.3073 213.623 46.1596 213.562 46.0077 213.498C41.1942 211.4 35.8473 200.891 33.9761 195.083C33.2744 192.913 33.6067 191.289 34.4275 190.151C35.7939 188.22 38.531 187.541 40.1273 187.541C42.6674 187.541 47.4809 193.232 47.4809 193.232L51.3752 210.41Z" fill="#6FC29F"/>
<path d="M104.812 217.917C99.26 219.549 78.0035 220.122 66.0703 218.866C63.3127 218.574 61.0557 218.187 59.6031 217.694C59.3011 217.586 59.0077 217.459 58.7249 217.314C57.0835 216.48 56.9235 215.641 57.5636 214.852C58.331 213.904 60.2843 213.023 62.332 212.318C64.3369 211.646 66.3826 211.082 68.4586 210.63C68.4586 210.63 69.7881 210.819 72.0205 211.009C76.6482 211.413 81.3015 211.507 85.9439 211.29C89.6535 211.125 93.3425 210.68 96.9743 209.962L104.812 217.917Z" fill="url(#paint5_linear_154_4375)"/>
<path d="M67.8182 211.768C61.6628 222.011 48.4329 217.079 46.0241 213.498C45.1583 212.212 45.109 209.23 45.3922 205.94C45.8398 201.67 46.5426 197.426 47.4973 193.228C47.4973 193.228 49.1018 190.14 53.6526 168.879C58.2035 147.619 75.8447 142.885 75.8447 142.885C76.7753 143.052 77.655 143.405 78.4218 143.92C81.9057 146.25 82.8947 151.887 83.3461 159.733C83.859 169.247 73.9653 201.494 67.8182 211.768Z" fill="#6FC29F"/>
<path opacity="0.65" d="M47.8545 208.391L46.4675 213.672C46.3239 213.623 46.1762 213.562 46.0243 213.498C41.2108 211.4 35.8639 200.891 33.9927 195.083C33.291 192.913 33.6233 191.289 34.4441 190.151C35.7449 195.284 43.2175 204.844 43.2175 204.844L47.8545 208.391Z" fill="#354E4C"/>
<path opacity="0.65" d="M67.8182 211.768C61.6628 222.011 48.4329 217.079 46.0241 213.498C45.1583 212.212 45.109 209.23 45.3922 205.941C51.9579 208.786 60.1158 208.141 65.7787 192.488C72.09 175.037 77.006 144.368 77.006 144.368C77.4167 144.093 77.9067 143.937 78.4136 143.921C81.8975 146.25 82.8865 151.888 83.3379 159.733C83.859 169.248 73.9653 201.494 67.8182 211.768Z" fill="#354E4C"/>
<path opacity="0.29" d="M104.812 217.917C97.6801 220.015 64.6341 220.361 58.7249 217.329C57.0835 216.495 56.9235 215.656 57.5636 214.867C61.4151 215.245 65.2875 215.411 69.1603 215.364C79.7803 215.254 85.7592 211.426 85.9439 211.309L96.2028 209.188L96.9866 209.985L104.812 217.917Z" fill="#354E4C"/>
<path opacity="0.65" d="M72.0203 211.028C71.96 211.338 71.8651 211.642 71.7372 211.935C70.937 213.748 69.2422 213.832 68.4133 215.971C68.0275 216.973 67.0263 218.027 66.0701 218.866C63.3125 218.574 61.0556 218.187 59.6029 217.694L62.3277 212.333C64.3327 211.661 66.3783 211.097 68.4543 210.645C68.4543 210.645 69.788 210.834 72.0203 211.028Z" fill="#354E4C"/>
<path d="M58.7246 218.361C55.5156 217.906 51.3751 216.916 51.3751 216.916C51.3751 216.916 46.4303 216.628 44.2349 210.599C43.5924 208.739 43.2495 206.801 43.2172 204.848C42.8069 193.228 47.4972 193.228 47.4972 193.228C47.4972 193.228 45.9338 199.677 46.4262 204.802C46.5094 205.868 46.734 206.921 47.0951 207.936C49.0238 213.031 58.7246 218.361 58.7246 218.361Z" fill="#CEEBE9"/>
<path opacity="0.29" d="M58.725 218.361C55.516 217.906 51.3755 216.916 51.3755 216.916C51.3755 216.916 46.4307 216.628 44.2353 210.599C44.2353 210.599 43.0042 203.486 45.056 200.77C45.4102 202.14 45.8626 203.487 46.4102 204.802C46.4933 205.868 46.718 206.921 47.0791 207.936C49.0241 213.031 58.725 218.361 58.725 218.361Z" fill="#354E4C"/>
<path opacity="0.65" d="M59.7631 161.588L61.2855 160.909C65.9683 163.244 71.089 164.733 76.3743 165.298L74.5687 173.083H73.0299L59.7631 161.588Z" fill="#354E4C"/>
<path d="M62.8119 175.185L64.2153 174.506L70.8918 176.296L65.8773 188.903H64.2933L62.8119 175.185Z" fill="#28383B"/>
<path d="M65.5245 215.152C65.5245 215.19 65.504 216.495 62.812 217.898C62.4654 218.064 62.093 218.18 61.7082 218.24C57.7811 218.946 48.1664 216.851 45.893 207.204C43.3529 196.449 47.4975 193.235 47.4975 193.235C46.8697 195.155 47.3334 197.507 48.2731 199.867L48.3798 200.129C48.5193 200.474 48.6712 200.819 48.8353 201.16C48.9584 201.43 49.0856 201.703 49.2251 201.98C50.0278 203.542 50.9223 205.061 51.9048 206.532C51.906 206.543 51.906 206.553 51.9048 206.563C52.0812 206.828 52.2536 207.082 52.4218 207.322C53.0487 208.17 53.8158 208.923 54.6952 209.552C55.0604 209.825 55.4461 210.099 55.8483 210.364L55.8893 210.387C59.9437 213.039 65.5245 215.152 65.5245 215.152Z" fill="white"/>
<path opacity="0.65" d="M85.279 133.753C85.279 133.753 82.3121 139.96 77.6381 141.69C72.9642 143.42 67.4613 147.157 67.4613 147.157C67.4613 147.157 75.9639 141.743 79.0785 145.704C82.1931 149.664 88.7547 143.306 88.8491 138.541C88.9435 133.776 86.5059 133.51 86.5059 133.51L85.279 133.753Z" fill="#354E4C"/>
<path d="M117.553 102.876C108.43 110.787 96.755 115.717 84.3142 116.913C83.1406 117.027 81.9574 117.106 80.7646 117.152C80.5143 116.666 80.2558 116.185 79.9808 115.714C85.4796 115.335 97.4702 113.973 106.326 109.178C111.866 106.177 115.124 103.608 117.028 101.723C117.2 102.098 117.381 102.478 117.553 102.876Z" fill="#43675E"/>
<path opacity="0.56" d="M65.5244 215.152C65.5244 215.19 65.5039 216.495 62.8119 217.899C62.4653 218.064 62.0929 218.18 61.7081 218.24C59.2478 218.135 56.8501 217.489 54.7151 216.354C52.58 215.219 50.7695 213.628 49.4343 211.715C44.7562 205.102 47.0994 196.695 47.0994 196.695C47.0994 196.695 47.5097 198.016 48.273 199.867L48.3797 200.129C48.5192 200.474 48.671 200.819 48.8352 201.161C48.9583 201.43 49.0855 201.703 49.225 201.98C49.9767 203.565 50.8731 205.088 51.9047 206.532C51.9059 206.543 51.9059 206.553 51.9047 206.563C52.6931 207.668 53.6308 208.675 54.6951 209.56C55.0568 209.857 55.4423 210.128 55.8482 210.372L55.8892 210.395C59.9435 213.039 65.5244 215.152 65.5244 215.152Z" fill="#354E4C"/>
<path opacity="0.4" d="M93.1044 102.52C93.1044 102.52 91.0732 107.33 95.4845 111.655C99.8958 115.98 102.682 117.228 103.236 122.122C103.79 127.016 111.792 131.401 116.203 129.933C120.615 128.465 101.841 133.753 101.841 133.753L86.7562 106.393L93.1044 102.52Z" fill="#354E4C"/>
<path opacity="0.4" d="M120.405 116.765C120.405 118.025 120.336 119.265 120.204 120.491C120.106 121.371 119.969 122.241 119.794 123.101C118.938 127.626 117.154 131.958 114.537 135.863C106.839 136.788 98.1024 133.791 102.268 130.442C108.111 125.745 110.602 108.021 104.061 102.14C99.1365 97.7281 99.5469 89.0177 100.064 84.9395C107.261 88.6088 113.037 94.266 116.585 101.12C116.868 101.666 117.135 102.224 117.385 102.785C119.385 107.214 120.412 111.966 120.405 116.765Z" fill="#354E4C"/>
<path d="M151.108 145.028C149.492 147.305 141.695 150.298 133.775 152.119C127.57 153.545 121.288 154.255 117.837 153.34C117.363 153.218 116.908 153.041 116.482 152.813C113.946 151.387 111.969 146.652 111.07 140.999C109.765 132.934 110.606 123.006 115.009 118.207C122.498 110.05 118.235 104.845 110.598 101.135C102.961 97.4244 104.984 90.2884 104.443 83.6152C103.901 76.9421 102.038 77.9246 98.3611 76.0733C94.6843 74.222 96.5556 66.68 89.4728 57.5371C89.0912 57.0477 88.7177 56.5962 88.3443 56.1789C87.9709 55.7616 87.7001 55.4809 87.3882 55.1698C81.3559 49.2098 76.9446 52.408 76.1034 47.4496C75.1678 41.9372 63.8542 41.5503 63.8542 41.5503C63.8542 41.5503 58.7207 42.2104 58.3226 40.1125C58.1626 39.2778 58.6181 38.8909 59.4634 38.8188C60.7396 38.705 62.8899 39.293 65.1386 40.1125C68.8811 41.4782 77.039 42.3318 83.855 43.0336C90.671 43.7355 91.0773 45.5451 91.0773 50.4921C91.0773 55.4392 95.7554 61.6154 109.441 62.6017C121.378 63.4667 123.233 68.2923 121.411 72.5299C121.139 73.1632 120.801 73.7705 120.401 74.3434C119.38 75.8191 118.711 77.2304 118.604 78.5734C118.567 78.8784 118.567 79.1864 118.604 79.4915C118.908 81.9346 121.337 84.1388 127.291 86.0736C137.185 89.2869 130.5 97.0754 129.433 102.884C128.366 108.692 133.176 105.357 138.789 115.369C144.403 125.381 146.04 118.7 151.888 124.861C157.736 131.022 154.182 140.7 151.108 145.028Z" fill="url(#paint6_linear_154_4375)"/>
<path opacity="0.18" d="M140.144 139.201V147.126C138.149 148.925 136.02 150.593 133.775 152.119C129.787 154.831 124.702 157.403 121.009 156.398C120.147 156.163 119.068 155.074 117.837 153.34C115.875 150.575 113.532 146.178 111.07 140.999C109.765 132.934 110.606 123.006 115.01 118.207C122.499 110.05 118.235 104.845 110.598 101.135C102.962 97.4245 104.985 90.2885 104.443 83.6153C103.901 76.9421 102.038 77.9247 98.3614 76.0733C94.6846 74.222 96.5558 66.68 89.4731 57.5371C89.0915 57.0477 88.718 56.5963 88.3446 56.179C91.4961 58.3717 94.6272 62.4614 96.1865 66.8014C98.3532 72.8714 102.707 71.7333 110.857 79.4991C119.006 87.2648 114.07 99.8032 118.481 101.522C122.893 103.24 123.697 110.429 123.295 115.744C122.893 121.059 127.037 126.5 133.714 128.351C140.39 130.202 140.144 139.201 140.144 139.201Z" fill="#354E4C"/>
<path d="M62.4013 215.353C59.6929 215.262 56.6358 213.854 53.9725 211.525C49.3355 207.488 45.8844 200.682 47.4971 193.228C47.7334 194.203 48.0279 195.166 48.3794 196.111C50.2916 201.365 55.6509 211.95 67.818 211.764C67.818 211.768 69.8205 215.599 62.4013 215.353Z" fill="#CEEBE9"/>
<path d="M59.7629 161.588C64.3998 164.104 69.5317 165.743 74.86 166.41L73.0298 173.083C73.0298 173.083 64.9252 171.766 60.3087 169.418C59.4467 168.979 58.7637 168.291 58.3636 167.46C57.9636 166.628 57.8685 165.699 58.0928 164.813C58.4662 163.329 59.0448 161.721 59.7629 161.588Z" fill="#CEEBE9"/>
<path d="M62.8116 175.185L58.7245 186.555L64.293 188.903L69.1599 177.04L62.8116 175.185Z" fill="#EE7671"/>
<path d="M116.495 154.422C112.33 156.751 97.2082 155.673 89.0011 150.457C88.5087 150.146 88.0368 149.816 87.5977 149.475C79.8255 143.405 85.6116 140.825 86.5185 133.51C87.4253 126.196 76.8546 120.062 75.5168 107.539C74.179 95.0154 63.1486 95.3417 62.6685 89.2831C62.6278 88.7629 62.558 88.245 62.4592 87.7315C62.3608 87.2269 62.2377 86.7299 62.0899 86.2443C62.0325 86.0508 61.9709 85.8649 61.9094 85.679C61.4216 84.2304 60.7319 82.8467 59.8576 81.5628C58.4665 79.5522 56.9851 78.4633 56.4024 79.059C55.8197 79.6546 56.1808 80.5196 56.6445 81.5363C56.6502 81.5494 56.6571 81.5621 56.665 81.5742C57.1862 82.7123 57.8756 83.9605 57.8058 85.0531C57.6745 87.1548 54.5968 85.8573 54.3301 82.0181C54.0633 78.1788 52.9923 68.7931 49.1883 64.2217C45.3843 59.6502 43.2176 54.6766 43.0863 50.5983C43.0288 48.8381 43.5418 47.6506 44.2558 47.4647C45.1914 47.2105 46.4717 48.6825 47.2309 52.8253C48.4127 59.2936 55.8074 63.2315 57.4611 64.0396L57.7894 64.1951C63.4072 65.7999 59.6606 64.3165 67.2276 65.6785C74.7946 67.0404 75.1557 70.8683 73.0136 73.2166C70.8716 75.5649 74.6181 74.7 73.6825 78.7782C73.5836 79.1969 73.5178 79.6217 73.4855 80.0491C73.2188 83.4635 75.3198 86.654 83.3341 90.1784C83.7732 90.3719 84.2287 90.5578 84.7047 90.7626C94.9226 94.9661 93.474 101.385 92.403 106.954C91.3319 112.524 98.148 113.024 99.6253 120.487C101.103 127.949 106.039 127.892 116.61 132.334C127.181 136.777 120.894 151.948 116.495 154.422Z" fill="url(#paint7_linear_154_4375)"/>
<path opacity="0.18" d="M113.622 144.368L89.0007 150.457C88.5083 150.146 88.0364 149.816 87.5973 149.475C79.8252 143.405 85.6112 140.825 86.5181 133.51C87.425 126.196 76.8542 120.062 75.5164 107.539C74.1787 95.0154 63.1483 95.3417 62.6681 89.2831C62.6275 88.7629 62.5576 88.245 62.4589 87.7314C64.0223 92.2081 68.9138 92.5002 74.4126 96.1649C80.4694 100.201 83.0588 104.754 81.1137 111.533C79.1686 118.313 89.4767 128.958 99.6372 131.64C109.798 134.322 113.622 144.368 113.622 144.368Z" fill="#354E4C"/>
<path d="M154.182 207.564C151.252 210.702 125.125 218.968 113.667 220.884C112.392 221.118 111.097 221.245 109.798 221.263C102.309 221.138 92.3288 215.341 92.3288 215.341C92.3288 215.341 80.8758 147.187 78.3562 143.883C78.3562 143.883 77.4123 142.437 79.2713 143.291C79.2713 143.291 98.3652 152.327 106.925 152.809C107.347 152.836 107.771 152.836 108.193 152.809C115.945 152.316 152.577 143.287 152.577 143.287C152.577 143.287 157.12 167.396 156.71 190.758C156.71 190.758 157.53 203.983 154.182 207.564Z" fill="url(#paint8_linear_154_4375)"/>
<path d="M113.667 220.888C112.392 221.121 111.097 221.248 109.798 221.267C102.309 221.142 92.3288 215.345 92.3288 215.345C92.3288 215.345 80.8758 147.187 78.3562 143.883C78.3562 143.883 77.4123 142.437 79.2713 143.291C79.2713 143.291 98.3652 152.327 106.925 152.809C106.925 152.809 116.737 209.488 113.667 220.888Z" fill="url(#paint9_linear_154_4375)"/>
<path d="M59.9428 176.642C60.7242 174.23 60.4883 172.033 59.4157 171.736C58.3432 171.439 56.8403 173.155 56.0588 175.567C55.2774 177.98 55.5134 180.176 56.5859 180.473C57.6584 180.77 59.1613 179.055 59.9428 176.642Z" fill="#CEEBE9"/>
<path d="M115.542 160.909L151.108 153.553L151.888 164.9L116.88 173.083L115.542 160.909Z" fill="#CEEBE9"/>
<path opacity="0.65" d="M151.108 153.553L148.901 152.813L113.606 159.983L115.145 172.711L116.88 173.083L115.543 160.909L151.108 153.553Z" fill="#354E4C"/>
<path d="M128.395 210.558C127.695 210.644 126.983 210.595 126.305 210.412C125.627 210.23 124.997 209.918 124.456 209.498C123.915 209.078 123.475 208.558 123.165 207.971C122.854 207.385 122.679 206.745 122.651 206.092L121.009 183.489C120.914 182.122 121.376 180.771 122.303 179.702C123.23 178.633 124.555 177.923 126.02 177.711C126.72 177.625 127.432 177.674 128.11 177.857C128.789 178.039 129.418 178.35 129.959 178.771C130.5 179.191 130.94 179.711 131.251 180.297C131.561 180.884 131.737 181.524 131.765 182.177L133.406 204.78C133.502 206.147 133.04 207.498 132.113 208.567C131.186 209.636 129.86 210.346 128.395 210.558Z" fill="#28383B"/>
<path d="M129.626 209.146C128.986 209.225 128.335 209.18 127.715 209.014C127.095 208.847 126.519 208.563 126.024 208.179C125.53 207.796 125.127 207.321 124.842 206.785C124.557 206.249 124.396 205.665 124.369 205.068L122.876 184.423C122.78 183.168 123.198 181.926 124.046 180.942C124.894 179.958 126.111 179.305 127.455 179.111C128.096 179.032 128.747 179.076 129.368 179.243C129.988 179.409 130.565 179.694 131.059 180.078C131.554 180.463 131.957 180.938 132.241 181.475C132.526 182.011 132.686 182.596 132.712 183.193L134.197 203.854C134.289 205.105 133.87 206.342 133.024 207.321C132.178 208.301 130.965 208.952 129.626 209.146Z" fill="#EE7671"/>
<path d="M148.502 204.264C147.868 204.342 147.224 204.297 146.61 204.132C145.996 203.966 145.426 203.685 144.937 203.305C144.447 202.924 144.048 202.454 143.766 201.924C143.484 201.393 143.325 200.814 143.299 200.223L141.826 179.771C141.743 178.539 142.16 177.322 142.995 176.358C143.83 175.394 145.024 174.753 146.344 174.559C146.977 174.48 147.621 174.525 148.235 174.689C148.849 174.854 149.418 175.135 149.908 175.515C150.397 175.895 150.795 176.365 151.077 176.896C151.358 177.426 151.517 178.005 151.543 178.595L153.016 199.032C153.103 200.267 152.689 201.488 151.854 202.456C151.019 203.423 149.824 204.068 148.502 204.264Z" fill="#28383B"/>
<path d="M149.586 202.985C149.007 203.057 148.418 203.016 147.857 202.865C147.295 202.715 146.774 202.457 146.327 202.11C145.879 201.763 145.515 201.333 145.257 200.848C144.999 200.363 144.854 199.834 144.83 199.294L143.484 180.598C143.408 179.468 143.79 178.351 144.557 177.467C145.323 176.583 146.418 175.995 147.629 175.818C148.208 175.747 148.797 175.787 149.358 175.938C149.919 176.089 150.44 176.346 150.888 176.693C151.336 177.041 151.7 177.471 151.958 177.956C152.215 178.44 152.361 178.97 152.385 179.51L153.731 198.205C153.807 199.336 153.425 200.452 152.658 201.336C151.892 202.22 150.796 202.808 149.586 202.985Z" fill="#EE7671"/>
<path d="M36.6968 31.2086C35.3549 32.5478 32.626 35.1427 28.0793 34.623C26.3166 34.3858 24.6205 33.8343 23.0852 32.9993L22.8021 32.8551C17.8778 30.1995 10.9469 21.3904 6.19084 14.1178C5.74218 13.435 5.3154 12.7673 4.91052 12.1147C4.91052 12.1147 4.8818 12.0692 4.86538 12.0465C2.76436 8.67003 1.27886 5.8437 0.909541 4.45898C0.150381 1.67438 1.52918 0.82458 2.66587 0.581781C3.2683 0.456991 3.89511 0.475263 4.48785 0.634893C7.76602 1.4809 10.9551 2.59825 14.0163 3.97338C14.0521 3.98679 14.0865 4.0033 14.1189 4.0227C24.5748 8.72314 32.0392 15.4494 36.1387 18.6362C36.2495 18.7272 36.3644 18.8145 36.4711 18.8941L36.5285 18.9397C41.6415 22.9345 38.49 29.4218 36.6968 31.2086Z" fill="url(#paint10_linear_154_4375)"/>
<path opacity="0.15" d="M36.5285 18.951L33.4303 18.0747C27.8983 12.4165 21.3652 7.66982 14.1107 4.03784C24.5748 8.72311 32.0392 15.4494 36.1387 18.6361C36.2495 18.7272 36.3644 18.8144 36.471 18.8941L36.5285 18.951Z" fill="#43675E"/>
<path opacity="0.15" d="M28.0831 34.6382C26.3204 34.401 24.6243 33.8496 23.0891 33.0145L22.8059 32.8703C17.8817 30.2147 10.9507 21.4057 6.1947 14.1331C6.63789 14.6528 20.9922 31.2694 26.5033 33.6442C27.0879 33.8889 27.6224 34.2251 28.0831 34.6382Z" fill="#43675E"/>
<path d="M36.6969 31.2085C34.916 32.9802 30.7098 36.9598 23.0895 33.0143C20.9351 30.15 21.5383 25.571 24.7678 22.039C27.9973 18.5071 32.7288 17.202 36.1388 18.6474C36.2496 18.7385 36.3645 18.8257 36.4712 18.9054C41.6663 22.885 38.4984 29.4141 36.6969 31.2085Z" fill="#354E4C"/>
<path d="M36.0109 30.8186C39.0983 27.4399 39.3106 22.912 36.4852 20.7054C33.6597 18.4987 28.8664 19.449 25.779 22.8277C22.6917 26.2065 22.4793 30.7344 25.3048 32.941C28.1302 35.1476 32.9235 34.1974 36.0109 30.8186Z" fill="#1B232A"/>
<path d="M18.7107 36.9904C18.4645 36.7931 8.75135 28.8452 14.7097 22.5059L19.5601 27.2974L20.6065 28.333C20.6065 28.333 17.217 31.4022 18.7107 36.9904Z" fill="#6EC5A2"/>
<path d="M40.9478 15.3242C34.8499 14.1558 31.6574 17.4032 31.6574 17.4032L30.5371 16.5117L25.1327 12.1868C31.7558 6.43551 40.7263 15.108 40.9437 15.3242H40.9478Z" fill="#6EC5A2"/>
<path d="M14.9149 16.4206C17.2538 16.4206 19.1498 14.6677 19.1498 12.5055C19.1498 10.3432 17.2538 8.59033 14.9149 8.59033C12.5761 8.59033 10.6801 10.3432 10.6801 12.5055C10.6801 14.6677 12.5761 16.4206 14.9149 16.4206Z" fill="white"/>
<path d="M93.7566 294.293C93.7566 294.331 93.7566 294.373 93.7566 294.414C93.6663 296.228 90.8841 298.697 87.2524 300.348C83.6208 301.998 71.5645 302.078 68.7125 298.618C67.4815 297.1 67.1655 295.841 67.2188 294.885C67.2361 294.178 67.4898 293.495 67.9452 292.927C67.9452 292.927 70.4073 293.595 76.1974 295.405C81.9876 297.214 93.3093 291.781 93.3093 291.781C93.3093 291.781 93.8182 292.563 93.7566 294.293Z" fill="white"/>
<path opacity="0.56" d="M93.7571 294.293C90.3757 296.493 83.3299 298.61 77.1417 298.288C69.5132 297.886 67.3465 295.063 67.2152 294.873C67.2324 294.167 67.4862 293.483 67.9415 292.916C67.9415 292.916 70.4037 293.583 76.1938 295.393C81.9839 297.203 93.3057 291.77 93.3057 291.77C93.3057 291.77 93.8186 292.563 93.7571 294.293Z" fill="#354E4C"/>
<path d="M67.5844 287.578C67.5844 287.578 71.7372 292.024 79.9402 292.601C88.1432 293.178 94.4751 288.602 94.4751 288.602C94.4751 288.602 96.5268 290.788 91.3481 293.508C86.1694 296.228 82.1685 297.711 74.86 296.163C67.5515 294.616 65.5695 291.288 67.5844 287.578Z" fill="#CEEBE9"/>
<path d="M67.2108 258.909L68.5322 258.18C68.9079 257.974 69.3306 257.851 69.7665 257.822C70.2025 257.793 70.6397 257.859 71.0435 258.013C77.4457 260.381 84.2155 261.79 91.0977 262.187C91.345 262.2 91.5864 262.261 91.8065 262.367C92.0265 262.472 92.2201 262.619 92.3749 262.797C92.5296 262.976 92.642 263.183 92.7047 263.405C92.7675 263.626 92.7792 263.857 92.7391 264.083L90.7817 275.472C90.7082 275.897 90.519 276.297 90.2318 276.636C89.9447 276.974 89.569 277.24 89.1403 277.407L87.1542 278.166L67.2108 258.909Z" fill="#354E4C"/>
<path d="M97.5856 356.541C97.1752 357.193 89.7108 358.464 84.5896 358.961H84.4952C84.3269 358.984 84.2079 358.991 84.1382 358.995H84.0766L86.1284 359.344C84.2109 359.601 82.2791 359.756 80.3424 359.807C77.2606 359.807 75.3073 359.375 74.9298 358.513C74.7615 358.134 74.8928 357.686 75.3401 357.152C76.8749 355.376 81.6514 353.248 81.278 350.945C81.1385 350.122 79.3944 343.194 77.1334 334.135C77.1334 334.135 77.4288 334.173 77.9541 334.222C80.2316 334.427 86.867 334.795 92.8911 332.826C94.3831 332.352 95.8089 331.715 97.1383 330.929C97.1916 331.309 97.2368 331.665 97.286 332.033C98.9397 345.114 98.0985 355.752 97.5856 356.541Z" fill="#354E4C"/>
<path d="M77.1292 334.154C77.1292 334.154 75.8982 333.82 76.4398 333.016C76.9815 332.211 85.3979 333.513 91.4137 331.843C97.4296 330.174 97.0972 328.808 97.7619 328.937C98.4267 329.066 98.9643 329.844 97.6347 330.629C96.3052 331.415 94.2657 336.032 77.1292 334.154Z" fill="#CEEBE9"/>
<path opacity="0.56" d="M97.2817 332.044C98.9232 345.114 98.1024 355.751 97.5854 356.541C97.1504 357.216 89.1772 358.555 84.0436 359.014C87.2526 356.632 90.7694 352.349 90.0348 345.228C88.7381 332.595 80.9044 310.397 85.1516 284.126C89.3988 257.854 102.103 237.762 102.103 237.762L112.916 237.656L122.863 236.643C122.863 236.643 93.8429 286.998 93.3054 291.785C92.7678 296.573 95.0904 316.505 97.0519 330.349C97.134 330.914 97.2079 331.479 97.2817 332.044Z" fill="#354E4C"/>
<path d="M14.9152 15.271C16.5674 15.271 17.9067 14.0328 17.9067 12.5054C17.9067 10.978 16.5674 9.73975 14.9152 9.73975C13.263 9.73975 11.9237 10.978 11.9237 12.5054C11.9237 14.0328 13.263 15.271 14.9152 15.271Z" fill="#1B232A"/>
<path d="M14.1108 4.03799C7.66824 5.17611 5.54669 9.07228 4.90243 12.1187C4.90243 12.1187 4.87371 12.0731 4.8573 12.0504C2.75627 8.67394 1.27077 5.8476 0.901454 4.46289C0.142294 1.67828 1.52109 0.828486 2.65778 0.585687C3.26022 0.460897 3.88703 0.479169 4.47976 0.638799C7.75793 1.48481 10.947 2.60215 14.0082 3.97729L14.1108 4.03799Z" fill="#6EC5A2"/>
<path opacity="0.65" d="M111.931 157.415C111.931 157.415 113.474 162.908 110.967 165.875C108.46 168.842 106.129 171.148 109.166 176.998C112.202 182.848 111.554 187.545 106.662 190.344C101.771 193.144 99.6864 197.363 102.83 202.382C105.973 207.401 89.7558 195.618 92.021 190.113C94.2861 184.608 100.946 177.252 100.959 170.332C100.971 163.413 104.061 160.287 104.061 160.287L111.931 157.415Z" fill="#354E4C"/>
<path d="M150.033 196.847C149.666 196.893 149.292 196.867 148.936 196.772C148.58 196.676 148.25 196.513 147.966 196.293C147.682 196.072 147.451 195.8 147.288 195.492C147.124 195.185 147.032 194.849 147.017 194.506L146.164 182.651C146.113 181.933 146.355 181.223 146.842 180.662C147.329 180.1 148.025 179.727 148.794 179.616C149.161 179.571 149.535 179.597 149.89 179.693C150.246 179.788 150.576 179.952 150.86 180.172C151.144 180.392 151.375 180.664 151.538 180.972C151.702 181.279 151.795 181.614 151.81 181.957L152.664 193.812C152.715 194.53 152.473 195.24 151.986 195.802C151.5 196.364 150.803 196.737 150.033 196.847Z" fill="white"/>
<path d="M39.0234 25.021C37.6644 24.0006 35.9321 23.504 34.187 23.6348C32.442 23.7656 30.8187 24.5137 29.6553 25.7232C28.4919 26.9327 27.878 28.5105 27.9414 30.1281C28.0047 31.7456 28.7405 33.2782 29.9956 34.4067C29.9956 34.4067 35.2317 39.7976 50.0251 42.495C50.0251 42.495 49.3931 36.3036 40.1765 26.2274C39.8489 25.7818 39.4614 25.3764 39.0234 25.021Z" fill="url(#paint11_linear_154_4375)"/>
<path opacity="0.65" d="M131.448 148.522C131.872 149.906 132.863 151.082 134.21 151.8C136.532 153.101 135.466 155.795 139.955 157.415C144.444 159.035 147.128 158.792 145.347 163.322C143.566 167.851 154.933 160.556 151.876 155.924C148.819 151.292 137.423 147.244 137.156 147.157C136.889 147.069 131.444 145.51 131.448 148.522Z" fill="#354E4C"/>
<path d="M36.397 26.3374C36.0055 26.0135 35.5488 25.7642 35.0531 25.6035C34.5573 25.4428 34.0322 25.374 33.5077 25.401C32.9832 25.4279 32.4695 25.5501 31.9961 25.7606C31.5227 25.971 31.0987 26.2657 30.7484 26.6276C30.3982 26.9895 30.1284 27.4117 29.9546 27.87C29.7808 28.3284 29.7064 28.8138 29.7355 29.2987C29.7647 29.7837 29.8969 30.2585 30.1245 30.6962C30.3522 31.1339 30.6709 31.5258 31.0624 31.8497C31.0624 31.8497 34.14 35.0175 42.8273 36.5994C42.8273 36.5994 42.458 32.965 37.0413 27.0468C36.8594 26.7864 36.6429 26.5481 36.397 26.3374Z" fill="white"/>
<path d="M93.843 78.2852C92.3288 81.3202 83.5841 78.5318 80.7403 70.6218C79.7185 67.7765 78.311 66.1604 76.8296 64.973C76.26 64.5225 75.6655 64.0996 75.0487 63.7058C72.9969 62.3666 70.9903 61.2513 69.8864 58.2618C67.6582 52.2488 63.3822 52.9885 59.4879 50.9285C58.5784 50.4674 57.7643 49.8612 57.0833 49.1379C55.7414 47.6621 55.8932 46.395 55.8932 46.395C56.7139 48.8685 61.6875 50.3519 65.5202 51.0917C69.3529 51.8314 69.7099 54.4719 70.3337 56.9454C70.9574 59.4189 74.3429 60.485 81.8237 65.0185C89.3045 69.552 95.3572 75.235 93.843 78.2852Z" fill="url(#paint12_linear_154_4375)"/>
<path d="M184.261 163.318C177.174 167.768 181.856 172.711 176.239 175.185C171.429 177.302 169.468 178.762 168.75 180.974C168.628 181.36 168.54 181.755 168.487 182.154C168.077 185.071 161.535 183.603 162.069 179.085C162.574 174.794 166.337 173.462 165.738 169.843C165.708 169.645 165.665 169.449 165.61 169.255C164.474 165.177 160.6 163.436 163.673 159.054C166.747 154.672 165.68 151.952 163.005 151.846C160.329 151.74 161.531 156.148 158.191 157.438C154.851 158.728 154.219 153.773 154.219 153.773C154.219 153.773 153.111 144.789 152.577 143.314L142.79 145.673C142.79 145.673 140.771 145.499 139.684 144.114C139.167 143.462 138.863 142.532 139.073 141.219C139.17 140.647 139.307 140.08 139.483 139.524C140.328 136.72 141.773 135.658 141.773 135.658C141.773 135.658 142.298 135.115 143.184 134.322C145.757 132.023 151.363 127.63 155.934 128.363C162.089 129.353 161.95 131.659 164.223 128.283C165.044 127.095 167.584 125.741 170.613 124.91C176.198 123.374 183.334 123.617 183.871 129.956C184.499 137.612 181.77 139.956 183.116 142.57C183.2 142.735 183.297 142.893 183.408 143.044C183.942 143.765 184.594 144.405 185.34 144.941C187.564 146.641 188.98 149.342 189.366 152.244C189.891 156.269 188.397 160.719 184.261 163.318Z" fill="url(#paint13_linear_154_4375)"/>
<path d="M170.493 149.846C167.818 156.891 164.075 157.635 165.159 161.588C166.209 165.462 165.774 169.665 165.754 169.839C165.724 169.641 165.681 169.445 165.626 169.251C164.49 165.173 160.616 163.432 163.69 159.05C166.763 154.668 165.696 151.948 163.021 151.842C160.345 151.736 161.548 156.144 158.207 157.434C154.867 158.724 154.235 153.769 154.235 153.769C154.235 153.769 153.127 144.786 152.594 143.31L142.807 145.67C142.807 145.67 140.788 145.495 139.7 144.11C139.403 142.596 139.33 141.052 139.483 139.52C139.704 137.676 140.414 136.106 141.846 135.1C141.846 135.1 142.359 134.755 143.184 134.319C145.269 133.207 149.339 131.485 152.327 133.12C156.471 135.396 154.6 139.235 159.812 139.732C165.023 140.229 173.165 142.802 170.493 149.846Z" fill="url(#paint14_linear_154_4375)"/>
<path d="M68.7129 259.011C71.7536 260.498 78.4383 263.15 88.2664 263.681C88.5308 263.696 88.7889 263.762 89.024 263.875C89.2592 263.988 89.4662 264.145 89.6317 264.336C89.7971 264.527 89.9174 264.748 89.9848 264.985C90.0521 265.222 90.065 265.469 90.0227 265.711L88.053 276.963C87.9784 277.393 87.7333 277.782 87.3653 278.055C86.9974 278.327 86.533 278.462 86.0628 278.435C81.7253 278.177 70.2969 277.092 64.8514 272.616C64.6334 272.434 64.4651 272.208 64.3603 271.954C64.2554 271.701 64.217 271.428 64.2482 271.159C64.4657 269.042 65.1017 263.423 65.9963 260.134C66.0659 259.877 66.1977 259.638 66.3819 259.435C66.566 259.232 66.7977 259.07 67.0593 258.962C67.3209 258.854 67.6057 258.802 67.8922 258.811C68.1787 258.819 68.4593 258.888 68.7129 259.011Z" fill="#CEEBE9"/>
<path d="M124.431 149.846L112.719 152.195C112.34 152.268 111.988 152.432 111.7 152.671C111.412 152.911 111.197 153.216 111.078 153.557C110.881 154.16 110.934 155.032 111.546 156.273C113.327 159.896 109.539 161.584 107.668 163.318C105.797 165.048 102.998 167.279 106.679 176.076C109.399 182.567 106.326 184.779 103.023 186.729C101.84 187.37 100.713 188.096 99.6535 188.899C95.9069 191.991 95.7756 192.359 102.284 201.506C108.792 210.652 94.84 217.944 86.7847 209.181C78.7294 200.417 86.5508 189.643 89.3576 186.058C89.9485 185.323 90.4391 184.524 90.8185 183.679C92.0824 180.765 91.4792 177.457 87.589 172.34C82.6114 165.788 85.7465 156.641 93.334 155.033C98.0777 154.027 98.8656 152.673 98.7917 151.796C98.7541 151.478 98.6107 151.179 98.3814 150.939C90.5107 149.107 79.2875 143.306 79.2875 143.306C79.4754 142.856 79.7047 142.422 79.9728 142.009C81.2244 140.138 84.2118 137.058 89.5874 138.792C97.0764 141.204 97.0764 139.467 99.6165 138.886C102.157 138.306 104.159 137.748 108.891 140.582C113.622 143.416 116.06 137.49 120.381 139.205C121.772 139.755 122.683 141.049 123.282 142.555C124.57 145.726 124.431 149.846 124.431 149.846Z" fill="url(#paint15_linear_154_4375)"/>
<path opacity="0.31" d="M141.564 166.721C141.564 166.721 138.219 167.358 139.381 173.371C140.542 179.384 143.931 183.011 149.459 182.856C154.986 182.7 152.414 176.585 152.414 176.585C152.414 176.585 146.426 175.852 144.206 172.556C141.986 169.259 141.564 166.721 141.564 166.721Z" fill="#354E4C"/>
<path d="M146.426 171.353C146.393 172.624 147.452 173.295 148.691 173.88C150.567 174.76 152.856 175.439 152.438 177.673C151.74 181.388 146.533 181.513 143.472 178.535C140.41 175.557 138.137 169.255 140.673 167.533C143.209 165.81 140.386 165.184 143.472 162.961C146.27 160.943 148.925 160.226 147.858 158.124C147.732 157.879 147.581 157.645 147.407 157.426C145.355 154.771 142.167 157.244 140.152 154.6C138.137 151.956 138.67 150.351 136.664 150.351C134.657 150.351 133.791 149.554 133.418 148.746C133.044 147.938 127.213 149.247 127.213 149.247C127.213 149.247 125.752 144.611 128.535 143.033C130.775 141.762 131.863 141.971 132.228 140.559C132.324 140.116 132.369 139.665 132.363 139.213C132.396 136.261 136.943 132.555 140.956 135.039L141.055 135.104C144.887 137.566 140.267 140.942 142.286 143.116C144.305 145.29 146.25 144.205 146.516 146.06C146.783 147.915 148.301 150.992 150.308 150.859C151.197 150.78 152.094 150.905 152.918 151.223C153.742 151.542 154.468 152.044 155.031 152.684C155.909 153.693 156.591 155.226 156.808 157.533C157.391 163.69 146.512 168.163 146.426 171.353Z" fill="url(#paint16_linear_154_4375)"/>
<path d="M141.6 288.773C141.536 289.345 141.326 289.895 140.989 290.378C139.565 292.518 132.256 294.991 126.105 295.31C119.954 295.628 117.077 293.216 117.549 291.895C118.021 290.575 118.263 290.207 119.064 290.124C119.864 290.04 135.552 290.537 140.989 286.664C141.473 287.27 141.691 288.024 141.6 288.773Z" fill="white"/>
<path opacity="0.56" d="M141.601 288.773C140.739 289.532 139.044 291.231 131.202 292.764C123.192 294.331 117.55 291.899 117.55 291.899C118.038 290.571 118.264 290.211 119.064 290.127C119.864 290.044 135.552 290.541 140.989 286.667C141.472 287.273 141.691 288.025 141.601 288.773Z" fill="#354E4C"/>
<path d="M117.947 287.328C117.947 287.328 129.437 292.639 141.136 284.126C141.136 284.126 142.249 285.431 140.459 287.328C138.67 289.225 135.199 291.285 128.514 291.785C121.829 292.286 118.255 291.209 117.459 290.055C116.663 288.902 117.947 287.328 117.947 287.328Z" fill="#CEEBE9"/>
<path d="M140.705 327.568C140.705 327.735 140.705 327.906 140.685 328.076C140.344 336.802 140.611 350.395 138.773 352.091C137.381 353.377 131.464 353.987 127.008 354.086C126.38 354.086 125.777 354.109 125.227 354.109C124.792 354.321 124.513 354.45 124.463 354.488C123.468 354.513 122.472 354.44 121.492 354.272C120.98 354.132 121.181 353.597 121.759 352.861C123.294 350.899 127.504 347.477 127.915 346.085C128.144 345.3 126.95 339.025 125.358 330.868L125.502 330.903C126.417 331.104 131.583 332.113 136.2 330.489C137.947 329.888 139.499 328.882 140.705 327.568Z" fill="#354E4C"/>
<path d="M125.329 330.861C125.329 330.861 124.168 330.481 124.509 329.996C124.849 329.51 127.947 330.554 131.21 330.428C134.472 330.303 139.47 328 140.779 326.031C142.088 324.063 141.744 326.434 141.009 327.223C140.275 328.012 137.451 333.08 125.329 330.861Z" fill="white"/>
<path opacity="0.56" d="M140.903 324.241C140.8 325.337 140.731 326.642 140.673 328.076C140.333 336.802 140.599 350.395 138.761 352.091C137.37 353.377 131.453 353.987 126.996 354.086C129.105 352.231 131.92 349.321 132.979 346.241C134.772 341.051 127.443 309.164 126.824 297.829C126.204 286.493 120.393 240.923 120.393 240.923L122.856 236.636L124.087 236.42L134.194 234.253L138.055 233.02C145.216 231.051 149.397 224.758 149.397 224.758C149.397 224.758 142.832 278.587 140.887 285.014C138.942 291.44 141.613 316.498 140.903 324.241Z" fill="#354E4C"/>
<path opacity="0.18" d="M59.8408 81.5287C58.4497 79.518 56.9683 78.4292 56.3856 79.0248C55.8029 79.6204 56.164 80.4854 56.6277 81.5021C56.3651 81.0127 53.5911 75.7812 53.7798 72.4958C53.9727 69.0814 50.579 63.6222 50.4764 63.4553C50.6037 63.6033 53.2628 66.7255 53.9152 69.1459C54.58 71.6194 55.651 74.7075 57.2555 76.0657C58.86 77.4239 59.7833 81.2859 59.8408 81.5287Z" fill="#354E4C"/>
<path opacity="0.18" d="M83.3334 90.1785C82.923 90.0647 71.3961 86.9007 69.1597 81.5288C66.8822 76.0582 66.4759 71.612 62.4011 69.2636C58.6094 67.0785 56.217 65.4244 55.9052 65.2043C56.4181 65.4889 61.9497 68.5277 64.2928 68.6453C66.755 68.7667 72.2004 73.5771 72.2825 76.8018C72.3727 77.9663 72.7977 79.0874 73.5136 80.0492C73.2345 83.4522 75.3355 86.6541 83.3334 90.1785Z" fill="#354E4C"/>
<path d="M61.9174 85.6602C62.0182 85.8354 62.0796 86.0277 62.0979 86.2254C62.0282 86.0319 61.9666 85.846 61.9174 85.6602Z" fill="#354E4C"/>
<path opacity="0.18" d="M121.419 72.5071C121.147 73.1404 120.809 73.7477 120.41 74.3205C119.388 75.7963 118.719 77.2076 118.612 78.5506C118.51 76.2743 117.824 70.3864 113.61 68.5123C108.325 66.1716 103.774 64.4417 103.774 64.4417C103.774 64.4417 118.502 64.988 121.419 72.5071Z" fill="#354E4C"/>
<path opacity="0.18" d="M87.3921 55.1547C81.3598 49.1948 76.9485 52.3929 76.1073 47.4345C75.1717 41.9222 63.8581 41.5352 63.8581 41.5352C63.8581 41.5352 58.7246 42.1953 58.3265 40.0974C58.1665 39.2628 58.622 38.8758 59.4673 38.8037C59.4673 38.8037 57.8259 40.215 61.4904 40.4654C65.1549 40.7158 75.2127 42.5254 77.0839 44.9951C78.9551 47.4648 80.7484 50.0218 84.3513 51.6683C85.9805 52.4005 86.8874 53.8269 87.3921 55.1547Z" fill="#354E4C"/>
<path opacity="0.18" d="M57.4607 64.0397C56.1328 63.7623 54.8285 63.3958 53.5582 62.9433C46.7832 60.5381 46.0692 54.8854 45.7122 51.5052C45.3552 48.1249 44.2719 47.4686 44.2719 47.4686C45.2075 47.2144 46.4878 48.6864 47.2469 52.8292C48.4123 59.2937 55.807 63.2316 57.4607 64.0397Z" fill="#354E4C"/>
<path d="M98.3653 150.924C90.4946 149.091 79.2714 143.291 79.2714 143.291C79.4655 142.846 79.7002 142.417 79.9731 142.009C80.1208 141.883 83.4242 139.148 87.1092 141.322C90.8804 143.549 90.7039 145.609 94.1796 145.609C97.6553 145.609 98.6976 149.486 98.3653 150.924Z" fill="url(#paint17_linear_154_4375)"/>
<path opacity="0.18" d="M124.431 149.846L112.719 152.195C112.34 152.268 111.988 152.432 111.7 152.671C111.412 152.91 111.197 153.216 111.078 153.557C111.078 153.557 110.208 150.34 113.618 148.86C117.028 147.38 121.369 147.096 122.133 144.368C122.342 143.674 122.752 143.046 123.319 142.551C124.57 145.726 124.431 149.846 124.431 149.846Z" fill="#354E4C"/>
<path opacity="0.18" d="M88.8491 169.005C92.2837 176.422 92.7721 180.629 90.8147 183.664C92.0786 180.75 91.4753 177.442 87.5852 172.324C82.6075 165.773 85.7427 156.626 93.3301 155.017C98.0739 154.012 98.8618 152.658 98.7879 151.781C99.0341 152.658 99.0341 154.08 97.3886 155.575C94.6884 158.003 85.4144 161.588 88.8491 169.005Z" fill="#354E4C"/>
<path opacity="0.18" d="M103.006 186.733C105.185 181.585 100.954 181.137 100.437 174.179C99.9121 166.971 107.413 163.428 107.651 163.322C105.78 165.052 102.982 167.282 106.662 176.08C109.383 182.571 106.31 184.802 103.006 186.733Z" fill="#354E4C"/>
<path d="M147.862 158.113C147.736 157.868 147.585 157.634 147.411 157.415C145.359 154.759 142.171 157.233 140.156 154.589C138.141 151.944 138.674 150.34 136.668 150.34C134.661 150.34 133.795 149.543 133.422 148.735C133.048 147.927 127.217 149.236 127.217 149.236C127.217 149.236 125.756 144.6 128.539 143.021C130.779 141.751 131.867 141.959 132.232 140.548C132.63 140.495 133.032 140.473 133.434 140.483C137.751 140.578 136.011 143.659 138.551 145.704C141.091 147.748 140.34 152.441 145.261 153.557C148.728 154.342 148.367 156.762 147.862 158.113Z" fill="url(#paint18_linear_154_4375)"/>
<path opacity="0.18" d="M142.282 143.093C142.282 143.093 139.208 141.288 140.144 139.201C140.653 137.874 140.957 136.487 141.047 135.081C144.879 137.543 140.259 140.92 142.282 143.093Z" fill="#354E4C"/>
<path opacity="0.18" d="M146.426 171.353C146.394 172.624 147.452 173.296 148.692 173.88C148.692 173.88 144.153 172.711 144.691 168.758C145.228 164.805 153.341 163.5 154.695 157.415C155.098 155.859 155.21 154.252 155.027 152.661C155.906 153.671 156.587 155.203 156.804 157.51C157.391 163.69 146.513 168.163 146.426 171.353Z" fill="#354E4C"/>
<path opacity="0.18" d="M183.104 142.547C182.969 142.426 180.576 140.271 181.007 135.798C181.454 131.185 181.573 125.02 170.6 124.888C176.185 123.351 183.322 123.594 183.859 129.933C184.487 137.589 181.742 139.933 183.104 142.547Z" fill="#354E4C"/>
<path opacity="0.18" d="M184.261 163.318C177.174 167.768 181.857 172.711 176.239 175.185C171.43 177.302 169.468 178.762 168.75 180.974C168.75 180.69 169.045 176.543 173.346 173.083C177.798 169.498 174.77 164.718 179.85 161.011C184.93 157.305 186.801 151.618 184.774 148.735C186.689 149.379 188.311 150.602 189.378 152.206C189.891 156.269 188.398 160.719 184.261 163.318Z" fill="#354E4C"/>
<path d="M68.0729 119.485C68.0729 119.485 58.2859 118.165 53.5627 112.656C48.8395 107.148 48.8272 102.542 50.4809 101.131C52.1347 99.7198 52.9431 104.599 53.3822 106.404C53.8212 108.21 55.6637 115.858 68.0729 119.485Z" fill="#45695E"/>
<path d="M55.1586 109.094C55.1586 109.094 53.9275 106.795 54.182 105.353C54.4364 103.912 54.8878 106.332 55.1586 107.224C55.3134 107.839 55.3134 108.479 55.1586 109.094Z" fill="#45695E"/>
<path d="M130.188 201.612C129.799 201.66 129.403 201.633 129.026 201.532C128.649 201.431 128.299 201.259 127.999 201.025C127.698 200.792 127.453 200.504 127.279 200.178C127.106 199.853 127.008 199.497 126.991 199.135L126.089 186.574C126.032 185.813 126.287 185.06 126.804 184.466C127.32 183.871 128.059 183.478 128.875 183.364C129.264 183.315 129.66 183.342 130.037 183.443C130.414 183.544 130.764 183.716 131.064 183.949C131.365 184.183 131.61 184.472 131.782 184.797C131.955 185.123 132.052 185.479 132.068 185.841L132.974 198.402C133.031 199.163 132.776 199.916 132.26 200.511C131.743 201.105 131.004 201.498 130.188 201.612Z" fill="white"/>
<path d="M68.2284 259.895C68.2284 259.895 75.2455 263.268 80.4899 263.844C85.7342 264.421 88.3154 264.505 88.1389 266.235C87.9625 267.964 87.2484 276.857 86.1774 277.236C85.1064 277.616 74.7695 276.368 70.67 274.721C66.5706 273.075 65.2328 271.918 65.3354 271.178C65.438 270.438 67.223 259.895 67.223 259.895C67.223 259.895 67.5718 259.239 68.2284 259.895Z" stroke="white" stroke-miterlimit="10"/>
<path opacity="0.29" d="M62.4013 215.353C59.693 215.262 56.6358 213.854 53.9726 211.525C53.8782 211.297 52.0563 206.76 49.9963 204.298C47.9363 201.836 48.3548 196.293 48.3795 196.115C50.2917 201.369 55.651 211.954 67.8181 211.768C67.8181 211.768 69.8206 215.599 62.4013 215.353Z" fill="#354E4C"/>
<path d="M59.8654 163.936C59.8654 163.936 68.8932 167.324 73.0502 167.351C73.0502 167.351 73.3046 169.248 72.0407 169.433C70.7768 169.619 62.2208 167.567 60.7969 166.687C59.373 165.807 59.8654 163.936 59.8654 163.936Z" stroke="white" stroke-miterlimit="10"/>
<path d="M64.6542 179.783C65.3998 179.783 66.0042 179.224 66.0042 178.535C66.0042 177.845 65.3998 177.286 64.6542 177.286C63.9085 177.286 63.3041 177.845 63.3041 178.535C63.3041 179.224 63.9085 179.783 64.6542 179.783Z" stroke="white" stroke-miterlimit="10"/>
<path d="M62.3153 185.511C63.0609 185.511 63.6654 184.953 63.6654 184.263C63.6654 183.574 63.0609 183.015 62.3153 183.015C61.5697 183.015 60.9652 183.574 60.9652 184.263C60.9652 184.953 61.5697 185.511 62.3153 185.511Z" stroke="white" stroke-miterlimit="10"/>
<path d="M130.881 205.546C131.627 205.546 132.231 204.987 132.231 204.298C132.231 203.609 131.627 203.05 130.881 203.05C130.136 203.05 129.531 203.609 129.531 204.298C129.531 204.987 130.136 205.546 130.881 205.546Z" stroke="white" stroke-miterlimit="10"/>
<path d="M150.735 200.77C151.48 200.77 152.085 200.211 152.085 199.522C152.085 198.832 151.48 198.273 150.735 198.273C149.989 198.273 149.385 198.832 149.385 199.522C149.385 200.211 149.989 200.77 150.735 200.77Z" stroke="white" stroke-miterlimit="10"/>
<path opacity="0.25" d="M47.8544 100.866C47.8544 100.866 64.0963 108.241 71.5689 119.094C79.0415 129.948 79.5257 121.428 77.6381 119.094C75.7504 116.761 72.5866 108.548 64.7898 103.282C56.993 98.0164 49.147 95.3912 47.8544 100.866Z" fill="white"/>
<path opacity="0.25" d="M77.2315 126.549C77.2315 126.549 77.4244 124.618 79.2833 124.626C81.1422 124.633 81.807 126.333 81.0971 127.122C80.3872 127.911 76.7719 128.711 77.2315 126.549Z" fill="white"/>
<path d="M98.3773 354.701C98.2501 355.991 98.0983 356.791 97.967 356.977C97.3925 357.861 84.733 359.811 80.3217 359.811C77.2399 359.811 75.2866 359.378 74.9091 358.517C74.9091 358.532 93.5721 357.956 98.3773 354.701Z" fill="#CEEBE9"/>
<path d="M139.643 351.616C139.547 351.883 139.393 352.13 139.192 352.341C136.935 354.435 123.368 354.784 121.481 354.257C120.968 354.116 121.169 353.581 121.747 352.845C121.747 352.845 131.731 354.021 139.643 351.616Z" fill="#CEEBE9"/>
<path d="M156.828 353.543H146.159C146.159 353.543 144.017 349.454 146.159 346.984C148.301 344.514 149.938 335.603 149.938 335.603L153.742 328.326C153.742 328.326 159.795 321.263 160.866 319.779C161.937 318.296 163.263 324.461 168.749 326.942C174.236 329.423 177.174 336.551 177.174 336.551L156.828 353.543Z" fill="url(#paint19_linear_154_4375)"/>
<path opacity="0.18" d="M75.0488 63.7059C72.997 62.3667 70.9904 61.2514 69.8865 58.2619C67.6583 52.2488 63.3823 52.9886 59.4881 50.9286C58.5785 50.4675 57.7644 49.8613 57.0834 49.1379C60.3006 50.7085 65.7542 52.135 67.0345 52.742C68.7744 53.5652 70.5431 57.5183 71.4459 59.8287C71.9506 61.1603 73.67 62.6702 75.0488 63.7059Z" fill="#354E4C"/>
<path d="M18.711 36.9904C18.6166 36.831 15.8385 32.0395 19.5604 27.2974L20.6068 28.3331C20.6068 28.3331 17.2173 31.4022 18.711 36.9904Z" fill="url(#paint20_linear_154_4375)"/>
<path d="M40.9477 15.3242C34.8498 14.1557 31.6573 17.4032 31.6573 17.4032L30.537 16.5117C30.537 16.5117 35.3792 13.1997 40.9436 15.3204L40.9477 15.3242Z" fill="url(#paint21_linear_154_4375)"/>
<path d="M63.5629 124.064C63.7148 124.064 63.8378 123.95 63.8378 123.81C63.8378 123.669 63.7148 123.556 63.5629 123.556C63.4111 123.556 63.288 123.669 63.288 123.81C63.288 123.95 63.4111 124.064 63.5629 124.064Z" fill="white"/>
<path d="M292.657 353.544H156.829C156.829 339.64 164.314 337.542 168.319 333.695C169.349 332.721 170.291 331.671 171.134 330.554C172.259 329.065 173.115 327.417 173.67 325.675C174.203 324.195 175.541 323.452 175.541 320.743C175.541 318.034 178.213 318.273 177.47 311.596C177.366 310.598 177.378 309.592 177.507 308.595C178.25 302.203 183.051 294.141 189.711 288.69C197.467 282.347 203.347 255.98 205.756 248.07C208.165 240.16 213.241 243.374 215.112 246.34C216.983 249.307 225.539 264.137 234.362 267.585C243.184 271.034 248.269 280.442 248.535 288.432C248.579 289.313 248.749 290.186 249.04 291.027C250.271 294.71 253.493 299.047 256.907 303.087C256.909 303.096 256.909 303.105 256.907 303.113C260.395 307.237 264.067 311.054 265.976 313.542C266.255 313.922 266.497 314.241 266.694 314.544C269.903 319.476 275.25 324.434 283.268 328.877C291.286 333.319 292.657 353.544 292.657 353.544Z" fill="url(#paint22_linear_154_4375)"/>
<path d="M19.4208 359.826H68.0727C68.0727 359.826 70.1532 355.998 66.8416 354.086C63.53 352.174 62.8857 336.802 59.6029 334.601C56.32 332.401 53.3778 328.338 53.3778 328.338C53.3778 328.338 55.9548 317.552 46.5125 328.93C37.0702 340.307 36.5696 346.241 33.6109 347.971C30.6522 349.701 25.0344 348.092 23.9675 351.616C22.9006 355.141 19.4208 359.826 19.4208 359.826Z" fill="url(#paint23_linear_154_4375)"/>
<path d="M210.343 243.096C210.343 243.096 205.517 257.513 206.055 265.904C206.592 274.296 204.179 286.497 202.846 289.426C201.512 292.354 192.119 296.205 189.46 301.448C186.801 306.691 190.543 292.187 195.357 287.328C200.17 282.468 204.471 247.235 210.343 243.096Z" fill="url(#paint24_linear_154_4375)"/>
<path opacity="0.56" d="M188.578 302.575C188.578 302.575 182.792 312.871 181.741 316.824C180.691 320.777 171.039 331.411 171.039 331.411C171.039 331.411 171.08 331.1 171.158 330.55C172.283 329.061 173.139 327.413 173.694 325.671C174.227 324.191 175.565 323.448 175.565 320.739C175.565 318.03 178.237 318.269 177.494 311.592C177.39 310.594 177.402 309.588 177.531 308.592C181.331 305.75 188.578 302.575 188.578 302.575Z" fill="#354E4C"/>
<path opacity="0.4" d="M190.991 353.544C190.991 353.544 195.271 324.738 198.3 321.274C201.328 317.81 205.608 299.965 207.032 296.615C208.456 293.265 210.442 289.312 210.344 287.578C210.245 285.844 210.344 282.548 210.344 282.548C210.344 282.548 205.608 293.705 203.47 295.067C201.332 296.429 187.782 306.793 186.711 310.242C185.64 313.69 180.474 332.067 172.094 336.563C163.715 341.058 157.449 347.314 157.449 347.314L156.829 353.551L190.991 353.544Z" fill="#354E4C"/>
<path opacity="0.4" d="M292.657 353.544H203.827C203.827 353.544 209.707 325.561 211.312 322.435C212.916 319.309 213.987 293.178 216.647 289.429C219.306 285.681 218.965 274.311 218.251 272.005C217.537 269.698 213.795 262.369 213.795 259.607C213.795 256.845 212.564 247.615 212.564 247.615C212.564 247.615 225.219 265.487 230.389 268.006C235.56 270.525 244.649 278.629 245.897 284.129C246.196 285.457 247.325 287.946 249.052 291.038C251.403 295.204 254.03 299.232 256.919 303.098C256.921 303.107 256.921 303.116 256.919 303.125C259.638 306.818 262.671 310.305 265.988 313.554C266.267 313.933 266.509 314.252 266.706 314.555C269.915 319.487 275.262 324.446 283.28 328.888C291.299 333.33 292.657 353.544 292.657 353.544Z" fill="#354E4C"/>
<path opacity="0.56" d="M149.939 223.498C149.804 223.935 149.628 224.36 149.413 224.769C149.319 225.528 142.848 278.64 140.903 285.017C138.958 291.395 141.613 316.505 140.903 324.237C140.812 325.201 140.747 326.327 140.693 327.564C140.693 327.731 140.693 327.902 140.673 328.072C140.332 336.798 140.599 350.391 138.761 352.087C137.369 353.373 131.452 353.984 126.996 354.082C126.368 354.082 125.765 354.105 125.215 354.105C127.857 352.808 136.364 348.38 135.909 345.224C135.691 343.706 136.036 337.72 136.171 330.466C136.364 319.92 136.118 306.687 133.048 300.575C127.87 290.268 123.249 263.928 129.585 250.434C131.83 245.642 133.163 239.845 133.951 234.356C134.218 232.482 134.423 230.649 134.579 228.9C134.682 227.728 134.764 226.59 134.825 225.513C134.899 224.272 134.952 223.107 134.985 222.037C134.985 221.798 134.985 221.563 135.006 221.332C135.006 220.573 135.035 219.905 135.039 219.283C135.039 216.859 134.994 215.383 134.994 215.383L148.47 210.599C148.593 212.94 148.543 212.117 148.58 212.951C148.58 213.331 148.609 213.558 148.609 213.558C149.284 214.229 149.729 215.068 149.889 215.971C149.889 215.971 150.431 218.194 149.93 220.05C149.43 221.905 150.439 221.905 149.939 223.498Z" fill="#354E4C"/>
<path opacity="0.56" d="M122.864 236.643L112.071 262.63C111.636 260.87 111.251 259.216 110.902 257.733L122.864 236.643Z" fill="#354E4C"/>
<path opacity="0.56" d="M93.3052 291.785C92.7717 296.565 95.0903 316.505 97.0518 330.349C97.0805 330.55 97.1092 330.751 97.1338 330.948C97.1872 331.327 97.2323 331.684 97.2816 332.052C98.923 345.121 98.1023 355.759 97.5852 356.548C97.1749 357.201 89.7105 358.472 84.5892 358.969C86.641 358.665 93.9987 356.609 93.7607 342.788C93.6529 339.465 93.3612 336.148 92.8866 332.852C90.6502 315.944 85.2499 292.639 90.047 282.362C95.8905 269.865 109.769 246.006 109.65 243.104C109.531 240.202 117.931 237.258 117.931 237.258L122.855 236.651V236.685C121.993 238.153 93.8346 287.07 93.3052 291.785Z" fill="#354E4C"/>
<path opacity="0.56" d="M149.939 223.498C149.804 223.935 149.629 224.36 149.414 224.769C148.244 226.996 144.768 231.218 133.951 234.333C129.163 235.657 124.256 236.584 119.289 237.102C118.834 237.155 118.382 237.205 117.931 237.246C101.106 238.976 87.975 236.632 80.4901 234.291C89.5508 234.447 88.4059 232.394 93.761 230.664C99.1162 228.934 106.72 230.182 113.606 229.644C120.492 229.105 134.124 224.124 140.813 221.298C143.441 220.234 145.823 218.71 147.826 216.81C148.474 216.201 149.034 215.518 149.492 214.776C149.695 215.156 149.834 215.563 149.902 215.983C149.902 215.983 150.444 218.206 149.943 220.061C149.442 221.916 150.44 221.905 149.939 223.498Z" fill="#354E4C"/>
<defs>
<linearGradient id="paint0_linear_154_4375" x1="37.3247" y1="81.9233" x2="105.527" y2="137.143" gradientUnits="userSpaceOnUse">
<stop offset="0.41" stop-color="#99D0B5"/>
<stop offset="1" stop-color="#45695E"/>
</linearGradient>
<linearGradient id="paint1_linear_154_4375" x1="37237.6" y1="16396.8" x2="51626.9" y2="16396.8" gradientUnits="userSpaceOnUse">
<stop stop-color="white"/>
<stop offset="0.38" stop-color="#99D0B5"/>
<stop offset="0.99" stop-color="#5F9D84"/>
</linearGradient>
<linearGradient id="paint2_linear_154_4375" x1="46.2331" y1="103.426" x2="86.9712" y2="130.218" gradientUnits="userSpaceOnUse">
<stop stop-color="#45695E"/>
<stop offset="0.87" stop-color="#1B232A"/>
</linearGradient>
<linearGradient id="paint3_linear_154_4375" x1="2637.36" y1="2493.37" x2="2740.6" y2="2508.82" gradientUnits="userSpaceOnUse">
<stop stop-color="#45695E"/>
<stop offset="0.87" stop-color="#1B232A"/>
</linearGradient>
<linearGradient id="paint4_linear_154_4375" x1="22765.8" y1="29730.4" x2="31015.9" y2="29730.4" gradientUnits="userSpaceOnUse">
<stop stop-color="white"/>
<stop offset="0.38" stop-color="#99D0B5"/>
<stop offset="0.99" stop-color="#5F9D84"/>
</linearGradient>
<linearGradient id="paint5_linear_154_4375" x1="21216.6" y1="6986.92" x2="26737" y2="6986.92" gradientUnits="userSpaceOnUse">
<stop stop-color="white"/>
<stop offset="0.38" stop-color="#99D0B5"/>
<stop offset="0.99" stop-color="#5F9D84"/>
</linearGradient>
<linearGradient id="paint6_linear_154_4375" x1="48252.7" y1="39131.6" x2="67528.9" y2="54315.3" gradientUnits="userSpaceOnUse">
<stop stop-color="white"/>
<stop offset="0.38" stop-color="#99D0B5"/>
<stop offset="0.99" stop-color="#5F9D84"/>
</linearGradient>
<linearGradient id="paint7_linear_154_4375" x1="33671.5" y1="41180.6" x2="48791.3" y2="46642.2" gradientUnits="userSpaceOnUse">
<stop stop-color="white"/>
<stop offset="0.38" stop-color="#99D0B5"/>
<stop offset="0.99" stop-color="#5F9D84"/>
</linearGradient>
<linearGradient id="paint8_linear_154_4375" x1="116.253" y1="139.69" x2="119.365" y2="211.76" gradientUnits="userSpaceOnUse">
<stop stop-color="#F8BA67"/>
<stop offset="0.38" stop-color="#99D0B5"/>
<stop offset="0.99" stop-color="#518273"/>
</linearGradient>
<linearGradient id="paint9_linear_154_4375" x1="96.1903" y1="143.021" x2="96.1903" y2="221.286" gradientUnits="userSpaceOnUse">
<stop stop-color="#F8BA67"/>
<stop offset="0.38" stop-color="#99D0B5"/>
<stop offset="0.99" stop-color="#6FC29F"/>
</linearGradient>
<linearGradient id="paint10_linear_154_4375" x1="12514.5" y1="5316.83" x2="15388.3" y2="8637.96" gradientUnits="userSpaceOnUse">
<stop stop-color="white"/>
<stop offset="0.38" stop-color="#99D0B5"/>
<stop offset="0.99" stop-color="#5F9D84"/>
</linearGradient>
<linearGradient id="paint11_linear_154_4375" x1="29.2733" y1="25.5597" x2="46.337" y2="41.5344" gradientUnits="userSpaceOnUse">
<stop stop-color="#EE7671"/>
<stop offset="1" stop-color="#1B232A" stop-opacity="0"/>
</linearGradient>
<linearGradient id="paint12_linear_154_4375" x1="74.5316" y1="59.6921" x2="80.6049" y2="94.5821" gradientUnits="userSpaceOnUse">
<stop stop-color="white"/>
<stop offset="1" stop-color="#B4E4F4"/>
</linearGradient>
<linearGradient id="paint13_linear_154_4375" x1="33204.3" y1="33127.1" x2="39389" y2="32508.9" gradientUnits="userSpaceOnUse">
<stop stop-color="white"/>
<stop offset="0.38" stop-color="#99D0B5"/>
<stop offset="0.99" stop-color="#5F9D84"/>
</linearGradient>
<linearGradient id="paint14_linear_154_4375" x1="20766.1" y1="20455.7" x2="23213.6" y2="20211.6" gradientUnits="userSpaceOnUse">
<stop stop-color="white"/>
<stop offset="0.38" stop-color="#99D0B5"/>
<stop offset="0.99" stop-color="#5F9D84"/>
</linearGradient>
<linearGradient id="paint15_linear_154_4375" x1="22926.8" y1="43779.1" x2="27973.8" y2="44908.2" gradientUnits="userSpaceOnUse">
<stop stop-color="white"/>
<stop offset="0.38" stop-color="#99D0B5"/>
<stop offset="0.99" stop-color="#5F9D84"/>
</linearGradient>
<linearGradient id="paint16_linear_154_4375" x1="18317.8" y1="25716" x2="21878.4" y2="25933.6" gradientUnits="userSpaceOnUse">
<stop stop-color="white"/>
<stop offset="0.38" stop-color="#99D0B5"/>
<stop offset="0.99" stop-color="#5F9D84"/>
</linearGradient>
<linearGradient id="paint17_linear_154_4375" x1="9886.27" y1="5558.77" x2="10562.1" y2="6018.82" gradientUnits="userSpaceOnUse">
<stop stop-color="white"/>
<stop offset="0.38" stop-color="#99D0B5"/>
<stop offset="0.99" stop-color="#5F9D84"/>
</linearGradient>
<linearGradient id="paint18_linear_154_4375" x1="13146.1" y1="9499.56" x2="14948.4" y2="9706.02" gradientUnits="userSpaceOnUse">
<stop stop-color="white"/>
<stop offset="0.38" stop-color="#99D0B5"/>
<stop offset="0.99" stop-color="#5F9D84"/>
</linearGradient>
<linearGradient id="paint19_linear_154_4375" x1="22514.9" y1="32590.9" x2="22439.4" y2="36261.9" gradientUnits="userSpaceOnUse">
<stop stop-color="white"/>
<stop offset="0.38" stop-color="#99D0B5"/>
<stop offset="0.99" stop-color="#5F9D84"/>
</linearGradient>
<linearGradient id="paint20_linear_154_4375" x1="921.131" y1="1732.2" x2="1392.41" y2="1880.44" gradientUnits="userSpaceOnUse">
<stop stop-color="#45695E"/>
<stop offset="0.87" stop-color="#1B232A"/>
</linearGradient>
<linearGradient id="paint21_linear_154_4375" x1="3624.53" y1="390.814" x2="3740.85" y2="834.562" gradientUnits="userSpaceOnUse">
<stop stop-color="#45695E"/>
<stop offset="0.87" stop-color="#1B232A"/>
</linearGradient>
<linearGradient id="paint22_linear_154_4375" x1="115990" y1="86566.3" x2="115990" y2="118717" gradientUnits="userSpaceOnUse">
<stop stop-color="white"/>
<stop offset="0.38" stop-color="#99D0B5"/>
<stop offset="0.99" stop-color="#5F9D84"/>
</linearGradient>
<linearGradient id="paint23_linear_154_4375" x1="20689.6" y1="34629.1" x2="20496.3" y2="39910.7" gradientUnits="userSpaceOnUse">
<stop stop-color="white"/>
<stop offset="0.38" stop-color="#99D0B5"/>
<stop offset="0.99" stop-color="#5F9D84"/>
</linearGradient>
<linearGradient id="paint24_linear_154_4375" x1="17777" y1="45997.1" x2="12370.7" y2="57815.8" gradientUnits="userSpaceOnUse">
<stop stop-color="white"/>
<stop offset="0.38" stop-color="#99D0B5"/>
<stop offset="0.99" stop-color="#5F9D84"/>
</linearGradient>
</defs>
</svg>
