<svg width="39" height="34" viewBox="0 0 39 34" fill="none" xmlns="http://www.w3.org/2000/svg">
<path fill-rule="evenodd" clip-rule="evenodd" d="M32.8211 22.9797C32.9816 22.8873 33.1151 22.7543 33.2081 22.594C33.3011 22.4336 33.3504 22.2516 33.3509 22.0661L33.3699 15.9472C33.3705 15.7617 33.4198 15.5797 33.5128 15.4193C33.6058 15.259 33.7393 15.126 33.8998 15.0336L37.2111 13.1282C37.3716 13.0359 37.5535 12.9875 37.7386 12.9878C37.9236 12.9881 38.1054 13.0372 38.2655 13.13C38.4257 13.2229 38.5587 13.3563 38.6512 13.5169C38.7436 13.6775 38.7923 13.8596 38.7923 14.045V25.1695C38.7923 25.3555 38.7433 25.5382 38.6503 25.6991C38.5572 25.8601 38.4235 25.9936 38.2625 26.0862L25.7657 33.2763C25.6061 33.3681 25.4253 33.4165 25.2413 33.4167C25.0572 33.4168 24.8763 33.3688 24.7165 33.2773L14.9093 27.6585C14.7478 27.5661 14.6135 27.4325 14.5201 27.2713C14.4266 27.1101 14.3774 26.9271 14.3773 26.7407V21.1314C14.3773 21.1251 14.3847 21.1208 14.3911 21.124C14.3963 21.1272 14.4037 21.124 14.4037 21.1166V21.1103C14.4037 21.106 14.4058 21.1018 14.4101 21.0997L22.4872 16.4515C22.4946 16.4473 22.4914 16.4357 22.483 16.4357C22.4807 16.4357 22.4786 16.4348 22.477 16.4332C22.4754 16.4316 22.4745 16.4294 22.4745 16.4272L22.4903 10.9279C22.4911 10.7419 22.4428 10.559 22.3505 10.3977C22.2582 10.2364 22.125 10.1023 21.9644 10.009C21.8038 9.9157 21.6215 9.86647 21.4358 9.86629C21.2502 9.86611 21.0678 9.91497 20.907 10.008L14.9041 13.4729C14.7438 13.5653 14.5622 13.614 14.3773 13.614C14.1925 13.614 14.0108 13.5653 13.8506 13.4729L7.82867 9.9995C7.66824 9.90696 7.48633 9.85831 7.3012 9.85845C7.11607 9.85858 6.93423 9.90748 6.77392 10.0003C6.61362 10.093 6.48049 10.2264 6.3879 10.387C6.29531 10.5476 6.24651 10.7297 6.2464 10.9152V20.8544C6.24652 21.0396 6.19806 21.2217 6.10585 21.3823C6.01365 21.5429 5.88095 21.6764 5.72104 21.7694C5.56112 21.8625 5.37961 21.9118 5.19467 21.9125C5.00974 21.9131 4.82787 21.8651 4.66729 21.7732L1.3254 19.8594C1.16353 19.7668 1.02903 19.6329 0.93559 19.4713C0.842145 19.3097 0.793085 19.1262 0.793397 18.9395L0.822953 1.56703C0.823355 1.38182 0.872313 1.19997 0.964926 1.03968C1.05754 0.879384 1.19056 0.746269 1.35067 0.653657C1.51078 0.561044 1.69237 0.512183 1.87726 0.511964C2.06214 0.511744 2.24384 0.560174 2.40418 0.652406L13.8517 7.23872C14.0116 7.33074 14.1929 7.37916 14.3773 7.37916C14.5618 7.37916 14.743 7.33074 14.903 7.23872L26.3473 0.652406C26.5079 0.560041 26.6899 0.511607 26.875 0.511966C27.0602 0.512325 27.242 0.561465 27.4022 0.654453C27.5624 0.74744 27.6954 0.881005 27.7878 1.04174C27.8802 1.20247 27.9287 1.38472 27.9286 1.5702V18.9469C27.9286 19.1328 27.8798 19.3154 27.7869 19.4764C27.6941 19.6373 27.5605 19.7709 27.3997 19.8636L21.4063 23.3212C21.2453 23.4142 21.1117 23.5481 21.0189 23.7093C20.9261 23.8706 20.8775 24.0536 20.8779 24.2397C20.8783 24.4258 20.9278 24.6086 21.0213 24.7694C21.1148 24.9303 21.2491 25.0635 21.4105 25.1557L24.7165 27.041C24.8763 27.1321 25.057 27.1799 25.2409 27.1795C25.4247 27.1791 25.6053 27.1307 25.7647 27.0389L32.8211 22.9797ZM33.5146 7.39204C33.5147 7.57903 33.5644 7.76264 33.6584 7.92414C33.7525 8.08564 33.8877 8.21926 34.0501 8.31138C34.2126 8.40349 34.3965 8.4508 34.5832 8.44848C34.7698 8.44617 34.9525 8.39431 35.1127 8.2982L38.2793 6.39494C38.4357 6.30111 38.5651 6.16834 38.655 6.00954C38.7449 5.85074 38.7922 5.67134 38.7923 5.48878V1.61038C38.792 1.42348 38.7422 1.24 38.6481 1.07865C38.5539 0.917293 38.4187 0.783824 38.2563 0.691836C38.0939 0.599848 37.91 0.55263 37.7234 0.554991C37.5369 0.557351 37.3543 0.609207 37.1942 0.705275L34.0276 2.60853C33.8712 2.70236 33.7418 2.83514 33.6519 2.99393C33.562 3.15273 33.5147 3.33213 33.5146 3.51469V7.39204Z" fill="#007FFF"/>
</svg>
