<svg width="42" height="40" viewBox="0 0 42 40" fill="none" xmlns="http://www.w3.org/2000/svg">
  <path d="M28.0094 9.84615H14.2883V29.5551H28.0094V9.84615ZM29.7246 9.84615V29.5551H32.2973C33.7182 29.5551 34.87 28.453 34.87 27.0935V12.3078C34.87 10.9483 33.7182 9.84615 32.2973 9.84615H29.7246ZM12.5732 9.84615H10.0005C8.57962 9.84615 7.42778 10.9483 7.42778 12.3078V27.0935C7.42778 28.453 8.57962 29.5551 10.0005 29.5551H12.5732V9.84615ZM16.0035 8.20505V7.3845C16.0035 6.02497 17.1553 4.92285 18.5762 4.92285H23.7216C25.1425 4.92285 26.2943 6.02497 26.2943 7.3845V8.20505H32.2973C34.6654 8.20505 36.5851 10.0419 36.5851 12.3078V27.0935C36.5851 29.3594 34.6654 31.1962 32.2973 31.1962H10.0005C7.63238 31.1962 5.71265 29.3594 5.71265 27.0935V12.3078C5.71265 10.0419 7.63238 8.20505 10.0005 8.20505H16.0035ZM24.5792 8.20505V7.3845C24.5792 6.93132 24.1952 6.56395 23.7216 6.56395H18.5762C18.1026 6.56395 17.7186 6.93132 17.7186 7.3845V8.20505H24.5792Z" fill="#5ED5A8"/>
</svg>
